<?xml version="1.0" encoding="UTF-8" standalone="no"?><svg xmlns="http://www.w3.org/2000/svg" xmlns:xlink="http://www.w3.org/1999/xlink" contentStyleType="text/css" height="455px" preserveAspectRatio="none" style="width:620px;height:455px;background:#FFFFFF;" version="1.1" viewBox="0 0 620 455" width="620px" zoomAndPan="magnify"><defs/><g><g id="elem_parent"><rect fill="#F1F1F1" height="61.4648" style="stroke:#181818;stroke-width:0.5;" width="206" x="219.5" y="7"/><text fill="#000000" font-family="sans-serif" font-size="14" lengthAdjust="spacing" textLength="96" x="274.5" y="22.5352">ip-idp-parent</text><line style="stroke:#181818;stroke-width:0.5;" x1="220.5" x2="424.5" y1="27.4883" y2="27.4883"/><text fill="#000000" font-family="sans-serif" font-size="14" lengthAdjust="spacing" textLength="194" x="225.5" y="45.0234">&lt;dependencyManagement&gt;</text><text fill="#000000" font-family="sans-serif" font-size="14" lengthAdjust="spacing" textLength="155" x="225.5" y="61.5117">&lt;pluginManagement&gt;</text></g><g id="elem_lib1"><rect fill="#F1F1F1" height="77.9531" style="stroke:#181818;stroke-width:0.5;" width="173" x="441" y="128"/><text fill="#000000" font-family="sans-serif" font-size="14" lengthAdjust="spacing" textLength="159" x="448" y="143.5352">ip-idp-lib-auth-oidcrp</text><line style="stroke:#181818;stroke-width:0.5;" x1="442" x2="613" y1="148.4883" y2="148.4883"/><text fill="#000000" font-family="sans-serif" font-size="14" lengthAdjust="spacing" textLength="125" x="447" y="166.0234">.authn.api.context</text><text fill="#000000" font-family="sans-serif" font-size="14" lengthAdjust="spacing" textLength="78" x="447" y="182.5117">.authn.impl</text><text fill="#000000" font-family="sans-serif" font-size="14" lengthAdjust="spacing" textLength="108" x="447" y="199">.authn.principal</text></g><g id="elem_lib2"><rect fill="#F1F1F1" height="77.9531" style="stroke:#181818;stroke-width:0.5;" width="166" x="239.5" y="128"/><text fill="#000000" font-family="sans-serif" font-size="14" lengthAdjust="spacing" textLength="152" x="246.5" y="143.5352">ip-idp-lib-auth-email</text><line style="stroke:#181818;stroke-width:0.5;" x1="240.5" x2="404.5" y1="148.4883" y2="148.4883"/><text fill="#000000" font-family="sans-serif" font-size="14" lengthAdjust="spacing" textLength="125" x="245.5" y="166.0234">.authn.api.context</text><text fill="#000000" font-family="sans-serif" font-size="14" lengthAdjust="spacing" textLength="78" x="245.5" y="182.5117">.authn.impl</text><text fill="#000000" font-family="sans-serif" font-size="14" lengthAdjust="spacing" textLength="108" x="245.5" y="199">.authn.principal</text></g><g id="elem_lib3"><rect fill="#F1F1F1" height="77.9531" style="stroke:#181818;stroke-width:0.5;" width="197" x="7" y="128"/><text fill="#000000" font-family="sans-serif" font-size="14" lengthAdjust="spacing" textLength="183" x="14" y="143.5352">ip-idp-lib-auth-webauthn</text><line style="stroke:#181818;stroke-width:0.5;" x1="8" x2="203" y1="148.4883" y2="148.4883"/><text fill="#000000" font-family="sans-serif" font-size="14" lengthAdjust="spacing" textLength="125" x="13" y="166.0234">.authn.api.context</text><text fill="#000000" font-family="sans-serif" font-size="14" lengthAdjust="spacing" textLength="78" x="13" y="182.5117">.authn.impl</text><text fill="#000000" font-family="sans-serif" font-size="14" lengthAdjust="spacing" textLength="108" x="13" y="199">.authn.principal</text></g><g id="elem_docker"><rect fill="#F1F1F1" height="61.4648" style="stroke:#181818;stroke-width:0.5;" width="116" x="264.5" y="266"/><text fill="#000000" font-family="sans-serif" font-size="14" lengthAdjust="spacing" textLength="98" x="273.5" y="281.5352">ip-idp-docker</text><line style="stroke:#181818;stroke-width:0.5;" x1="265.5" x2="379.5" y1="286.4883" y2="286.4883"/><ellipse cx="275.5" cy="297.4883" fill="none" rx="3" ry="3" style="stroke:#038048;stroke-width:1.0;"/><text fill="#000000" font-family="sans-serif" font-size="14" lengthAdjust="spacing" textLength="90" x="284.5" y="304.0234">mvn package</text><ellipse cx="275.5" cy="313.9766" fill="none" rx="3" ry="3" style="stroke:#038048;stroke-width:1.0;"/><text fill="#000000" font-family="sans-serif" font-size="14" lengthAdjust="spacing" textLength="85" x="284.5" y="320.5117">docker push</text></g><g id="elem_deploySaasA"><rect fill="#F1F1F1" height="61.4648" style="stroke:#181818;stroke-width:0.5;" width="254" x="51.5" y="387"/><text fill="#000000" font-family="sans-serif" font-size="14" lengthAdjust="spacing" textLength="240" x="58.5" y="402.5352">ip-idp-docker-deploy-saasClientA</text><line style="stroke:#181818;stroke-width:0.5;" x1="52.5" x2="304.5" y1="407.4883" y2="407.4883"/><ellipse cx="62.5" cy="418.4883" fill="none" rx="3" ry="3" style="stroke:#038048;stroke-width:1.0;"/><text fill="#000000" font-family="sans-serif" font-size="14" lengthAdjust="spacing" textLength="158" x="71.5" y="425.0234">aws s3 sync confFolder</text><ellipse cx="62.5" cy="434.9766" fill="none" rx="3" ry="3" style="stroke:#038048;stroke-width:1.0;"/><text fill="#000000" font-family="sans-serif" font-size="14" lengthAdjust="spacing" textLength="186" x="71.5" y="441.5117">aws cloudformation deploy</text></g><g id="elem_deploySaasB"><rect fill="#F1F1F1" height="61.4648" style="stroke:#181818;stroke-width:0.5;" width="252" x="340.5" y="387"/><text fill="#000000" font-family="sans-serif" font-size="14" lengthAdjust="spacing" textLength="238" x="347.5" y="402.5352">ip-idp-docker-deploy-saasClientB</text><line style="stroke:#181818;stroke-width:0.5;" x1="341.5" x2="591.5" y1="407.4883" y2="407.4883"/><ellipse cx="351.5" cy="418.4883" fill="none" rx="3" ry="3" style="stroke:#038048;stroke-width:1.0;"/><text fill="#000000" font-family="sans-serif" font-size="14" lengthAdjust="spacing" textLength="158" x="360.5" y="425.0234">aws s3 sync confFolder</text><ellipse cx="351.5" cy="434.9766" fill="none" rx="3" ry="3" style="stroke:#038048;stroke-width:1.0;"/><text fill="#000000" font-family="sans-serif" font-size="14" lengthAdjust="spacing" textLength="186" x="360.5" y="441.5117">aws cloudformation deploy</text></g><!--MD5=[86f2ad81a1b14ad25135548738c4a24a]
entity libClientA--><g id="elem_libClientA"><rect fill="#F1F1F1" height="46.4883" rx="2.5" ry="2.5" style="stroke:#181818;stroke-width:0.5;" width="107" x="87" y="273.5"/><rect fill="#F1F1F1" height="10" style="stroke:#181818;stroke-width:0.5;" width="15" x="174" y="278.5"/><rect fill="#F1F1F1" height="2" style="stroke:#181818;stroke-width:0.5;" width="4" x="172" y="280.5"/><rect fill="#F1F1F1" height="2" style="stroke:#181818;stroke-width:0.5;" width="4" x="172" y="284.5"/><text fill="#000000" font-family="sans-serif" font-size="14" lengthAdjust="spacing" textLength="67" x="102" y="307.0352">libClientA</text></g><!--MD5=[6bf724cd73a6d5219c97de83754d079b]
entity libClientB--><g id="elem_libClientB"><rect fill="#F1F1F1" height="46.4883" rx="2.5" ry="2.5" style="stroke:#181818;stroke-width:0.5;" width="105" x="475" y="273.5"/><rect fill="#F1F1F1" height="10" style="stroke:#181818;stroke-width:0.5;" width="15" x="560" y="278.5"/><rect fill="#F1F1F1" height="2" style="stroke:#181818;stroke-width:0.5;" width="4" x="558" y="280.5"/><rect fill="#F1F1F1" height="2" style="stroke:#181818;stroke-width:0.5;" width="4" x="558" y="284.5"/><text fill="#000000" font-family="sans-serif" font-size="14" lengthAdjust="spacing" textLength="65" x="490" y="307.0352">libClientB</text></g><!--MD5=[c84c56ed26bceb787cf0e90dabd8128b]
link parent to lib1--><g id="link_parent_lib1"><path codeLine="42" d="M370.05,68.07 C397.33,85.04 431.98,106.59 461.83,125.16 " fill="none" id="parent-to-lib1" style="stroke:#181818;stroke-width:1.0;stroke-dasharray:7.0,7.0;"/><polygon fill="#181818" points="466.2,127.88,460.6757,119.7264,461.956,125.2364,456.4459,126.5168,466.2,127.88" style="stroke:#181818;stroke-width:1.0;"/></g><!--MD5=[3eeec8af72d21fcadd3b8482a21642bc]
link parent to lib2--><g id="link_parent_lib2"><path codeLine="43" d="M322.5,68.07 C322.5,84.34 322.5,104.83 322.5,122.86 " fill="none" id="parent-to-lib2" style="stroke:#181818;stroke-width:1.0;stroke-dasharray:7.0,7.0;"/><polygon fill="#181818" points="322.5,127.88,326.5,118.88,322.5,122.88,318.5,118.88,322.5,127.88" style="stroke:#181818;stroke-width:1.0;"/></g><!--MD5=[e9b0bbb86a78e5b8cb34f67485745313]
link parent to lib3--><g id="link_parent_lib3"><path codeLine="44" d="M272.17,68.07 C243.29,85.04 206.61,106.59 175.01,125.16 " fill="none" id="parent-to-lib3" style="stroke:#181818;stroke-width:1.0;stroke-dasharray:7.0,7.0;"/><polygon fill="#181818" points="170.39,127.88,180.1773,126.7801,174.7037,125.3518,176.1321,119.8782,170.39,127.88" style="stroke:#181818;stroke-width:1.0;"/></g><!--MD5=[10a3cd6be42a03fade98936e259140e4]
link lib1 to docker--><g id="link_lib1_docker"><path codeLine="45" d="M466.27,206.08 C437.04,224.26 402.44,245.78 374.5,263.16 " fill="none" id="lib1-to-docker" style="stroke:#181818;stroke-width:1.0;stroke-dasharray:7.0,7.0;"/><polygon fill="#181818" points="370.08,265.91,379.8341,264.5468,374.324,263.2664,375.6043,257.7564,370.08,265.91" style="stroke:#181818;stroke-width:1.0;"/></g><!--MD5=[96fe7def5edcc359814c494ee58e0169]
link lib2 to docker--><g id="link_lib2_docker"><path codeLine="46" d="M322.5,206.25 C322.5,223.54 322.5,243.81 322.5,260.67 " fill="none" id="lib2-to-docker" style="stroke:#181818;stroke-width:1.0;stroke-dasharray:7.0,7.0;"/><polygon fill="#181818" points="322.5,265.78,326.5,256.78,322.5,260.78,318.5,256.78,322.5,265.78" style="stroke:#181818;stroke-width:1.0;"/></g><!--MD5=[9f88994cb40a3c11bd7220bfc2309dbd]
link lib3 to docker--><g id="link_lib3_docker"><path codeLine="47" d="M170.31,206.08 C201.38,224.34 238.19,245.96 267.82,263.37 " fill="none" id="lib3-to-docker" style="stroke:#181818;stroke-width:1.0;stroke-dasharray:7.0,7.0;"/><polygon fill="#181818" points="272.14,265.91,266.4095,257.8999,267.83,263.3755,262.3543,264.796,272.14,265.91" style="stroke:#181818;stroke-width:1.0;"/></g><!--MD5=[cd18fddba29d47f50359bfee066132f9]
link lib1 to libClientB--><g id="link_lib1_libClientB"><path codeLine="48" d="M527.5,206.25 C527.5,226.06 527.5,249.81 527.5,267.82 " fill="none" id="lib1-to-libClientB" style="stroke:#181818;stroke-width:1.0;stroke-dasharray:7.0,7.0;"/><polygon fill="#181818" points="527.5,273.22,531.5,264.22,527.5,268.22,523.5,264.22,527.5,273.22" style="stroke:#181818;stroke-width:1.0;"/></g><!--MD5=[81e42806cc2ee9793622a4aa27b2b576]
link lib2 to libClientA--><g id="link_lib2_libClientA"><path codeLine="49" d="M267.89,206.25 C238.18,227.07 202.26,252.23 176.15,270.53 " fill="none" id="lib2-to-libClientA" style="stroke:#181818;stroke-width:1.0;stroke-dasharray:7.0,7.0;"/><polygon fill="#181818" points="172.04,273.4,181.7109,271.5361,176.1422,270.5413,177.137,264.9726,172.04,273.4" style="stroke:#181818;stroke-width:1.0;"/></g><!--MD5=[937bde205a9e261066ccf4b0313d7056]
link lib3 to libClientA--><g id="link_lib3_libClientA"><path codeLine="50" d="M116,206.25 C121.49,226.23 128.07,250.22 133.03,268.28 " fill="none" id="lib3-to-libClientA" style="stroke:#181818;stroke-width:1.0;stroke-dasharray:7.0,7.0;"/><polygon fill="#181818" points="134.38,273.22,135.8491,263.4813,133.0536,268.3992,128.1357,265.6036,134.38,273.22" style="stroke:#181818;stroke-width:1.0;"/></g><!--MD5=[45bc462956a72ab8574538442dfb8618]
link docker to deploySaasA--><g id="link_docker_deploySaasA"><path codeLine="51" d="M286.53,327.22 C265.83,344.33 239.77,365.87 218.43,383.5 " fill="none" id="docker-to-deploySaasA" style="stroke:#181818;stroke-width:1.0;stroke-dasharray:7.0,7.0;"/><polygon fill="#181818" points="214.51,386.74,223.9964,384.0928,218.3651,383.556,218.902,377.9246,214.51,386.74" style="stroke:#181818;stroke-width:1.0;"/></g><!--MD5=[37dbff334cb8b80f957087e17bbefdf4]
link docker to deploySaasB--><g id="link_docker_deploySaasB"><path codeLine="52" d="M358.47,327.22 C379.17,344.33 405.23,365.87 426.57,383.5 " fill="none" id="docker-to-deploySaasB" style="stroke:#181818;stroke-width:1.0;stroke-dasharray:7.0,7.0;"/><polygon fill="#181818" points="430.49,386.74,426.098,377.9246,426.6349,383.556,421.0036,384.0928,430.49,386.74" style="stroke:#181818;stroke-width:1.0;"/></g><!--MD5=[b38228d53e6a2b487ea5363866973922]
@startuml maven-project-layout
allowmixing

object "ip-idp-parent" as parent {
    <dependencyManagement>
    <pluginManagement>
}

object "ip-idp-lib-auth-oidcrp" as lib1 {
    .authn.api.context
    .authn.impl
    .authn.principal
}

object "ip-idp-lib-auth-email" as lib2 {
    .authn.api.context
    .authn.impl
    .authn.principal
}

object "ip-idp-lib-auth-webauthn" as lib3 {
    .authn.api.context
    .authn.impl
    .authn.principal
}

object "ip-idp-docker" as docker {
    + mvn package
    + docker push
}
object "ip-idp-docker-deploy-saasClientA" as deploySaasA {
    + aws s3 sync confFolder
    + aws cloudformation deploy
}
object "ip-idp-docker-deploy-saasClientB" as deploySaasB {
    + aws s3 sync confFolder
    + aws cloudformation deploy
}

component libClientA
component libClientB

parent ..> lib1
parent ..> lib2
parent ..> lib3
lib1 ..> docker
lib2 ..> docker
lib3 ..> docker
lib1 ..> libClientB
lib2 ..> libClientA
lib3 ..> libClientA
docker ..> deploySaasA
docker ..> deploySaasB

@enduml

PlantUML version 1.2022.5(Sat Apr 30 13:55:52 EEST 2022)
(GPL source distribution)
Java Runtime: OpenJDK Runtime Environment
JVM: OpenJDK 64-Bit Server VM
Default Encoding: UTF-8
Language: en
Country: FI
--></g></svg>