<?xml version="1.0" encoding="UTF-8" standalone="no"?><svg xmlns="http://www.w3.org/2000/svg" xmlns:xlink="http://www.w3.org/1999/xlink" contentStyleType="text/css" height="455px" preserveAspectRatio="none" style="width:620px;height:455px;background:#FFFFFF;" version="1.1" viewBox="0 0 620 455" width="620px" zoomAndPan="magnify"><defs/><g><g id="elem_parent"><rect fill="#F1F1F1" height="61.4648" style="stroke:#181818;stroke-width:0.5;" width="206" x="219.5" y="7"/><text fill="#000000" font-family="sans-serif" font-size="14" lengthAdjust="spacing" textLength="96" x="274.5" y="22.5352">ip-idp-parent</text><line style="stroke:#181818;stroke-width:0.5;" x1="220.5" x2="424.5" y1="27.4883" y2="27.4883"/><text fill="#000000" font-family="sans-serif" font-size="14" lengthAdjust="spacing" textLength="194" x="225.5" y="45.0234">&lt;dependencyManagement&gt;</text><text fill="#000000" font-family="sans-serif" font-size="14" lengthAdjust="spacing" textLength="155" x="225.5" y="61.5117">&lt;pluginManagement&gt;</text></g><g id="elem_lib1"><rect fill="#F1F1F1" height="77.9531" style="stroke:#181818;stroke-width:0.5;" width="173" x="441" y="128"/><text fill="#000000" font-family="sans-serif" font-size="14" lengthAdjust="spacing" textLength="159" x="448" y="143.5352">ip-idp-lib-auth-oidcrp</text><line style="stroke:#181818;stroke-width:0.5;" x1="442" x2="613" y1="148.4883" y2="148.4883"/><text fill="#000000" font-family="sans-serif" font-size="14" lengthAdjust="spacing" textLength="125" x="447" y="166.0234">.authn.api.context</text><text fill="#000000" font-family="sans-serif" font-size="14" lengthAdjust="spacing" textLength="78" x="447" y="182.5117">.authn.impl</text><text fill="#000000" font-family="sans-serif" font-size="14" lengthAdjust="spacing" textLength="108" x="447" y="199">.authn.principal</text></g><g id="elem_lib2"><rect fill="#F1F1F1" height="77.9531" style="stroke:#181818;stroke-width:0.5;" width="166" x="239.5" y="128"/><text fill="#000000" font-family="sans-serif" font-size="14" lengthAdjust="spacing" textLength="152" x="246.5" y="143.5352">ip-idp-lib-auth-email</text><line style="stroke:#181818;stroke-width:0.5;" x1="240.5" x2="404.5" y1="148.4883" y2="148.4883"/><text fill="#000000" font-family="sans-serif" font-size="14" lengthAdjust="spacing" textLength="125" x="245.5" y="166.0234">.authn.api.context</text><text fill="#000000" font-family="sans-serif" font-size="14" lengthAdjust="spacing" textLength="78" x="245.5" y="182.5117">.authn.impl</text><text fill="#000000" font-family="sans-serif" font-size="14" lengthAdjust="spacing" textLength="108" x="245.5" y="199">.authn.principal</text></g><g id="elem_lib3"><rect fill="#F1F1F1" height="77.9531" style="stroke:#181818;stroke-width:0.5;" width="197" x="7" y="128"/><text fill="#000000" font-family="sans-serif" font-size="14" lengthAdjust="spacing" textLength="183" x="14" y="143.5352">ip-idp-lib-auth-webauthn</text><line style="stroke:#181818;stroke-width:0.5;" x1="8" x2="203" y1="148.4883" y2="148.4883"/><text fill="#000000" font-family="sans-serif" font-size="14" lengthAdjust="spacing" textLength="125" x="13" y="166.0234">.authn.api.context</text><text fill="#000000" font-family="sans-serif" font-size="14" lengthAdjust="spacing" textLength="78" x="13" y="182.5117">.authn.impl</text><text fill="#000000" font-family="sans-serif" font-size="14" lengthAdjust="spacing" textLength="108" x="13" y="199">.authn.principal</text></g><g id="elem_docker"><rect fill="#F1F1F1" height="61.4648" style="stroke:#181818;stroke-width:0.5;" width="116" x="264.5" y="266"/><text fill="#000000" font-family="sans-serif" font-size="14" lengthAdjust="spacing" textLength="98" x="273.5" y="281.5352">ip-idp-docker</text><line style="stroke:#181818;stroke-width:0.5;" x1="265.5" x2="379.5" y1="286.4883" y2="286.4883"/><ellipse cx="275.5" cy="300.2324" fill="none" rx="3" ry="3" style="stroke:#038048;stroke-width:1.0;"/><text fill="#000000" font-family="sans-serif" font-size="14" lengthAdjust="spacing" textLength="90" x="284.5" y="304.0234">mvn package</text><ellipse cx="275.5" cy="316.7207" fill="none" rx="3" ry="3" style="stroke:#038048;stroke-width:1.0;"/><text fill="#000000" font-family="sans-serif" font-size="14" lengthAdjust="spacing" textLength="85" x="284.5" y="320.5117">docker push</text></g><g id="elem_deployMSPA"><rect fill="#F1F1F1" height="61.4648" style="stroke:#181818;stroke-width:0.5;" width="252" x="53.5" y="387"/><text fill="#000000" font-family="sans-serif" font-size="14" lengthAdjust="spacing" textLength="238" x="60.5" y="402.5352">ip-idp-docker-deploy-MSPClientA</text><line style="stroke:#181818;stroke-width:0.5;" x1="54.5" x2="304.5" y1="407.4883" y2="407.4883"/><ellipse cx="64.5" cy="421.2324" fill="none" rx="3" ry="3" style="stroke:#038048;stroke-width:1.0;"/><text fill="#000000" font-family="sans-serif" font-size="14" lengthAdjust="spacing" textLength="158" x="73.5" y="425.0234">aws s3 sync confFolder</text><ellipse cx="64.5" cy="437.7207" fill="none" rx="3" ry="3" style="stroke:#038048;stroke-width:1.0;"/><text fill="#000000" font-family="sans-serif" font-size="14" lengthAdjust="spacing" textLength="186" x="73.5" y="441.5117">aws cloudformation deploy</text></g><g id="elem_deployMSPB"><rect fill="#F1F1F1" height="61.4648" style="stroke:#181818;stroke-width:0.5;" width="250" x="340.5" y="387"/><text fill="#000000" font-family="sans-serif" font-size="14" lengthAdjust="spacing" textLength="236" x="347.5" y="402.5352">ip-idp-docker-deploy-MSPClientB</text><line style="stroke:#181818;stroke-width:0.5;" x1="341.5" x2="589.5" y1="407.4883" y2="407.4883"/><ellipse cx="351.5" cy="421.2324" fill="none" rx="3" ry="3" style="stroke:#038048;stroke-width:1.0;"/><text fill="#000000" font-family="sans-serif" font-size="14" lengthAdjust="spacing" textLength="158" x="360.5" y="425.0234">aws s3 sync confFolder</text><ellipse cx="351.5" cy="437.7207" fill="none" rx="3" ry="3" style="stroke:#038048;stroke-width:1.0;"/><text fill="#000000" font-family="sans-serif" font-size="14" lengthAdjust="spacing" textLength="186" x="360.5" y="441.5117">aws cloudformation deploy</text></g><!--MD5=[86f2ad81a1b14ad25135548738c4a24a]
entity libClientA--><g id="elem_libClientA"><rect fill="#F1F1F1" height="46.4883" rx="2.5" ry="2.5" style="stroke:#181818;stroke-width:0.5;" width="107" x="87" y="273.5"/><rect fill="#F1F1F1" height="10" style="stroke:#181818;stroke-width:0.5;" width="15" x="174" y="278.5"/><rect fill="#F1F1F1" height="2" style="stroke:#181818;stroke-width:0.5;" width="4" x="172" y="280.5"/><rect fill="#F1F1F1" height="2" style="stroke:#181818;stroke-width:0.5;" width="4" x="172" y="284.5"/><text fill="#000000" font-family="sans-serif" font-size="14" lengthAdjust="spacing" textLength="67" x="102" y="307.0352">libClientA</text></g><!--MD5=[6bf724cd73a6d5219c97de83754d079b]
entity libClientB--><g id="elem_libClientB"><rect fill="#F1F1F1" height="46.4883" rx="2.5" ry="2.5" style="stroke:#181818;stroke-width:0.5;" width="105" x="475" y="273.5"/><rect fill="#F1F1F1" height="10" style="stroke:#181818;stroke-width:0.5;" width="15" x="560" y="278.5"/><rect fill="#F1F1F1" height="2" style="stroke:#181818;stroke-width:0.5;" width="4" x="558" y="280.5"/><rect fill="#F1F1F1" height="2" style="stroke:#181818;stroke-width:0.5;" width="4" x="558" y="284.5"/><text fill="#000000" font-family="sans-serif" font-size="14" lengthAdjust="spacing" textLength="65" x="490" y="307.0352">libClientB</text></g><!--MD5=[c84c56ed26bceb787cf0e90dabd8128b]
link parent to lib1--><g id="link_parent_lib1"><path codeLine="42" d="M370.56,68.39 C397.3,85.02 431,105.98 460.31,124.21 " fill="none" id="parent-to-lib1" style="stroke:#181818;stroke-width:1.0;stroke-dasharray:7.0,7.0;"/><polygon fill="#181818" points="464.45,126.78,458.9257,118.6264,460.206,124.1364,454.6959,125.4168,464.45,126.78" style="stroke:#181818;stroke-width:1.0;"/></g><!--MD5=[3eeec8af72d21fcadd3b8482a21642bc]
link parent to lib2--><g id="link_parent_lib2"><path codeLine="43" d="M322.5,68.39 C322.5,84.13 322.5,103.73 322.5,121.24 " fill="none" id="parent-to-lib2" style="stroke:#181818;stroke-width:1.0;stroke-dasharray:7.0,7.0;"/><polygon fill="#181818" points="322.5,126.07,326.5,117.07,322.5,121.07,318.5,117.07,322.5,126.07" style="stroke:#181818;stroke-width:1.0;"/></g><!--MD5=[e9b0bbb86a78e5b8cb34f67485745313]
link parent to lib3--><g id="link_parent_lib3"><path codeLine="44" d="M271.62,68.39 C243.2,85.09 207.35,106.16 176.23,124.44 " fill="none" id="parent-to-lib3" style="stroke:#181818;stroke-width:1.0;stroke-dasharray:7.0,7.0;"/><polygon fill="#181818" points="172.19,126.82,181.9729,125.6819,176.4938,124.2749,177.9007,118.7958,172.19,126.82" style="stroke:#181818;stroke-width:1.0;"/></g><!--MD5=[10a3cd6be42a03fade98936e259140e4]
link lib1 to docker--><g id="link_lib1_docker"><path codeLine="45" d="M465.72,206.43 C437.09,224.23 403.4,245.18 375.9,262.29 " fill="none" id="lib1-to-docker" style="stroke:#181818;stroke-width:1.0;stroke-dasharray:7.0,7.0;"/><polygon fill="#181818" points="371.77,264.86,381.5241,263.4968,376.014,262.2164,377.2943,256.7064,371.77,264.86" style="stroke:#181818;stroke-width:1.0;"/></g><!--MD5=[96fe7def5edcc359814c494ee58e0169]
link lib2 to docker--><g id="link_lib2_docker"><path codeLine="46" d="M322.5,206.25 C322.5,223.09 322.5,242.77 322.5,259.35 " fill="none" id="lib2-to-docker" style="stroke:#181818;stroke-width:1.0;stroke-dasharray:7.0,7.0;"/><polygon fill="#181818" points="322.5,264.27,326.5,255.27,322.5,259.27,318.5,255.27,322.5,264.27" style="stroke:#181818;stroke-width:1.0;"/></g><!--MD5=[9f88994cb40a3c11bd7220bfc2309dbd]
link lib3 to docker--><g id="link_lib3_docker"><path codeLine="47" d="M170.9,206.43 C201.33,224.31 237.16,245.36 266.34,262.5 " fill="none" id="lib3-to-docker" style="stroke:#181818;stroke-width:1.0;stroke-dasharray:7.0,7.0;"/><polygon fill="#181818" points="270.4,264.89,264.6579,256.8882,266.0863,262.3618,260.6127,263.7901,270.4,264.89" style="stroke:#181818;stroke-width:1.0;"/></g><!--MD5=[cd18fddba29d47f50359bfee066132f9]
link lib1 to libClientB--><g id="link_lib1_libClientB"><path codeLine="48" d="M527.5,206.25 C527.5,225.72 527.5,248.99 527.5,266.88 " fill="none" id="lib1-to-libClientB" style="stroke:#181818;stroke-width:1.0;stroke-dasharray:7.0,7.0;"/><polygon fill="#181818" points="527.5,271.7,531.5,262.7,527.5,266.7,523.5,262.7,527.5,271.7" style="stroke:#181818;stroke-width:1.0;"/></g><!--MD5=[81e42806cc2ee9793622a4aa27b2b576]
link lib2 to libClientA--><g id="link_lib2_libClientA"><path codeLine="49" d="M267.89,206.25 C238.74,226.68 203.62,251.28 177.64,269.48 " fill="none" id="lib2-to-libClientA" style="stroke:#181818;stroke-width:1.0;stroke-dasharray:7.0,7.0;"/><polygon fill="#181818" points="173.81,272.16,183.4809,270.2961,177.9122,269.3013,178.907,263.7326,173.81,272.16" style="stroke:#181818;stroke-width:1.0;"/></g><!--MD5=[937bde205a9e261066ccf4b0313d7056]
link lib3 to libClientA--><g id="link_lib3_libClientA"><path codeLine="50" d="M116,206.25 C121.39,225.89 127.84,249.4 132.77,267.35 " fill="none" id="lib3-to-libClientA" style="stroke:#181818;stroke-width:1.0;stroke-dasharray:7.0,7.0;"/><polygon fill="#181818" points="133.98,271.76,135.4491,262.0213,132.6536,266.9392,127.7357,264.1436,133.98,271.76" style="stroke:#181818;stroke-width:1.0;"/></g><!--MD5=[2f827c25feb1acfaf3c3d33456b48c4d]
link docker to deployMSPA--><g id="link_docker_deployMSPA"><path codeLine="51" d="M286.78,327.22 C266.57,344.05 241.2,365.15 220.21,382.62 " fill="none" id="docker-to-deployMSPA" style="stroke:#181818;stroke-width:1.0;stroke-dasharray:7.0,7.0;"/><polygon fill="#181818" points="216.42,385.78,225.8957,383.0947,220.2623,382.5805,220.7765,376.947,216.42,385.78" style="stroke:#181818;stroke-width:1.0;"/></g><!--MD5=[b0a7e4c0701fd73fcb56d1a8fd7746a8]
link docker to deployMSPB--><g id="link_docker_deployMSPB"><path codeLine="52" d="M358.22,327.22 C378.43,344.05 403.8,365.15 424.79,382.62 " fill="none" id="docker-to-deployMSPB" style="stroke:#181818;stroke-width:1.0;stroke-dasharray:7.0,7.0;"/><polygon fill="#181818" points="428.58,385.78,424.2235,376.947,424.7377,382.5805,419.1043,383.0947,428.58,385.78" style="stroke:#181818;stroke-width:1.0;"/></g><!--MD5=[d45ecbe477d580928d8ecdebf0c79e7a]
@startuml maven-project-layout
allowmixing

object "ip-idp-parent" as parent {
    <dependencyManagement>
    <pluginManagement>
}

object "ip-idp-lib-auth-oidcrp" as lib1 {
    .authn.api.context
    .authn.impl
    .authn.principal
}

object "ip-idp-lib-auth-email" as lib2 {
    .authn.api.context
    .authn.impl
    .authn.principal
}

object "ip-idp-lib-auth-webauthn" as lib3 {
    .authn.api.context
    .authn.impl
    .authn.principal
}

object "ip-idp-docker" as docker {
    + mvn package
    + docker push
}
object "ip-idp-docker-deploy-MSPClientA" as deployMSPA {
    + aws s3 sync confFolder
    + aws cloudformation deploy
}
object "ip-idp-docker-deploy-MSPClientB" as deployMSPB {
    + aws s3 sync confFolder
    + aws cloudformation deploy
}

component libClientA
component libClientB

parent ..> lib1
parent ..> lib2
parent ..> lib3
lib1 ..> docker
lib2 ..> docker
lib3 ..> docker
lib1 ..> libClientB
lib2 ..> libClientA
lib3 ..> libClientA
docker ..> deployMSPA
docker ..> deployMSPB

@enduml

PlantUML version 1.2022.7(Mon Aug 22 20:01:30 EEST 2022)
(GPL source distribution)
Java Runtime: OpenJDK Runtime Environment
JVM: OpenJDK 64-Bit Server VM
Default Encoding: UTF-8
Language: en
Country: FI
--></g></svg>