<?xml version="1.0" encoding="us-ascii" standalone="no"?><svg xmlns="http://www.w3.org/2000/svg" xmlns:xlink="http://www.w3.org/1999/xlink" contentStyleType="text/css" height="456px" preserveAspectRatio="none" style="width:694px;height:456px;background:#FFFFFF;" version="1.1" viewBox="0 0 694 456" width="694px" zoomAndPan="magnify"><defs/><g><g id="elem_parent"><rect fill="#F1F1F1" height="61.4648" style="stroke:#181818;stroke-width:0.5;" width="206" x="293.5" y="7"/><text fill="#000000" font-family="sans-serif" font-size="14" lengthAdjust="spacing" textLength="96" x="348.5" y="22.5352">ip-idp-parent</text><line style="stroke:#181818;stroke-width:0.5;" x1="294.5" x2="498.5" y1="27.4883" y2="27.4883"/><text fill="#000000" font-family="sans-serif" font-size="14" lengthAdjust="spacing" textLength="194" x="299.5" y="45.0234">&lt;dependencyManagement&gt;</text><text fill="#000000" font-family="sans-serif" font-size="14" lengthAdjust="spacing" textLength="155" x="299.5" y="61.5117">&lt;pluginManagement&gt;</text></g><g id="elem_lib1"><rect fill="#F1F1F1" height="77.9531" style="stroke:#181818;stroke-width:0.5;" width="173" x="515" y="128.47"/><text fill="#000000" font-family="sans-serif" font-size="14" lengthAdjust="spacing" textLength="159" x="522" y="144.0052">ip-idp-lib-auth-oidcrp</text><line style="stroke:#181818;stroke-width:0.5;" x1="516" x2="687" y1="148.9583" y2="148.9583"/><text fill="#000000" font-family="sans-serif" font-size="14" lengthAdjust="spacing" textLength="125" x="521" y="166.4934">.authn.api.context</text><text fill="#000000" font-family="sans-serif" font-size="14" lengthAdjust="spacing" textLength="78" x="521" y="182.9817">.authn.impl</text><text fill="#000000" font-family="sans-serif" font-size="14" lengthAdjust="spacing" textLength="108" x="521" y="199.47">.authn.principal</text></g><g id="elem_lib2"><rect fill="#F1F1F1" height="77.9531" style="stroke:#181818;stroke-width:0.5;" width="166" x="313.5" y="128.47"/><text fill="#000000" font-family="sans-serif" font-size="14" lengthAdjust="spacing" textLength="152" x="320.5" y="144.0052">ip-idp-lib-auth-email</text><line style="stroke:#181818;stroke-width:0.5;" x1="314.5" x2="478.5" y1="148.9583" y2="148.9583"/><text fill="#000000" font-family="sans-serif" font-size="14" lengthAdjust="spacing" textLength="125" x="319.5" y="166.4934">.authn.api.context</text><text fill="#000000" font-family="sans-serif" font-size="14" lengthAdjust="spacing" textLength="78" x="319.5" y="182.9817">.authn.impl</text><text fill="#000000" font-family="sans-serif" font-size="14" lengthAdjust="spacing" textLength="108" x="319.5" y="199.47">.authn.principal</text></g><g id="elem_lib3"><rect fill="#F1F1F1" height="77.9531" style="stroke:#181818;stroke-width:0.5;" width="271" x="7" y="128.47"/><text fill="#000000" font-family="sans-serif" font-size="14" lengthAdjust="spacing" textLength="257" x="14" y="144.0052">ip-idp-lib-intercept-storageprincipal</text><line style="stroke:#181818;stroke-width:0.5;" x1="8" x2="277" y1="148.9583" y2="148.9583"/><text fill="#000000" font-family="sans-serif" font-size="14" lengthAdjust="spacing" textLength="146" x="13" y="166.4934">.intercept.api.context</text><text fill="#000000" font-family="sans-serif" font-size="14" lengthAdjust="spacing" textLength="99" x="13" y="182.9817">.intercept.impl</text><text fill="#000000" font-family="sans-serif" font-size="14" lengthAdjust="spacing" textLength="129" x="13" y="199.47">.intercept.principal</text></g><g id="elem_docker"><rect fill="#F1F1F1" height="61.4648" style="stroke:#181818;stroke-width:0.5;" width="116" x="338.5" y="266.42"/><text fill="#000000" font-family="sans-serif" font-size="14" lengthAdjust="spacing" textLength="98" x="347.5" y="281.9552">ip-idp-docker</text><line style="stroke:#181818;stroke-width:0.5;" x1="339.5" x2="453.5" y1="286.9083" y2="286.9083"/><ellipse cx="349.5" cy="300.6524" fill="none" rx="3" ry="3" style="stroke:#038048;stroke-width:1.0;"/><text fill="#000000" font-family="sans-serif" font-size="14" lengthAdjust="spacing" textLength="90" x="358.5" y="304.4434">mvn package</text><ellipse cx="349.5" cy="317.1407" fill="none" rx="3" ry="3" style="stroke:#038048;stroke-width:1.0;"/><text fill="#000000" font-family="sans-serif" font-size="14" lengthAdjust="spacing" textLength="85" x="358.5" y="320.9317">docker push</text></g><g id="elem_deployMSPA"><rect fill="#F1F1F1" height="61.4648" style="stroke:#181818;stroke-width:0.5;" width="252" x="127.5" y="387.89"/><text fill="#000000" font-family="sans-serif" font-size="14" lengthAdjust="spacing" textLength="238" x="134.5" y="403.4252">ip-idp-docker-deploy-MSPClientA</text><line style="stroke:#181818;stroke-width:0.5;" x1="128.5" x2="378.5" y1="408.3783" y2="408.3783"/><ellipse cx="138.5" cy="422.1224" fill="none" rx="3" ry="3" style="stroke:#038048;stroke-width:1.0;"/><text fill="#000000" font-family="sans-serif" font-size="14" lengthAdjust="spacing" textLength="158" x="147.5" y="425.9134">aws s3 sync confFolder</text><ellipse cx="138.5" cy="438.6107" fill="none" rx="3" ry="3" style="stroke:#038048;stroke-width:1.0;"/><text fill="#000000" font-family="sans-serif" font-size="14" lengthAdjust="spacing" textLength="186" x="147.5" y="442.4017">aws cloudformation deploy</text></g><g id="elem_deployMSPB"><rect fill="#F1F1F1" height="61.4648" style="stroke:#181818;stroke-width:0.5;" width="250" x="414.5" y="387.89"/><text fill="#000000" font-family="sans-serif" font-size="14" lengthAdjust="spacing" textLength="236" x="421.5" y="403.4252">ip-idp-docker-deploy-MSPClientB</text><line style="stroke:#181818;stroke-width:0.5;" x1="415.5" x2="663.5" y1="408.3783" y2="408.3783"/><ellipse cx="425.5" cy="422.1224" fill="none" rx="3" ry="3" style="stroke:#038048;stroke-width:1.0;"/><text fill="#000000" font-family="sans-serif" font-size="14" lengthAdjust="spacing" textLength="158" x="434.5" y="425.9134">aws s3 sync confFolder</text><ellipse cx="425.5" cy="438.6107" fill="none" rx="3" ry="3" style="stroke:#038048;stroke-width:1.0;"/><text fill="#000000" font-family="sans-serif" font-size="14" lengthAdjust="spacing" textLength="186" x="434.5" y="442.4017">aws cloudformation deploy</text></g><!--entity libClientA--><g id="elem_libClientA"><rect fill="#F1F1F1" height="46.4883" rx="2.5" ry="2.5" style="stroke:#181818;stroke-width:0.5;" width="107" x="143" y="273.91"/><rect fill="#F1F1F1" height="10" style="stroke:#181818;stroke-width:0.5;" width="15" x="230" y="278.91"/><rect fill="#F1F1F1" height="2" style="stroke:#181818;stroke-width:0.5;" width="4" x="228" y="280.91"/><rect fill="#F1F1F1" height="2" style="stroke:#181818;stroke-width:0.5;" width="4" x="228" y="284.91"/><text fill="#000000" font-family="sans-serif" font-size="14" lengthAdjust="spacing" textLength="67" x="158" y="307.4452">libClientA</text></g><!--entity libClientB--><g id="elem_libClientB"><rect fill="#F1F1F1" height="46.4883" rx="2.5" ry="2.5" style="stroke:#181818;stroke-width:0.5;" width="105" x="549" y="273.91"/><rect fill="#F1F1F1" height="10" style="stroke:#181818;stroke-width:0.5;" width="15" x="634" y="278.91"/><rect fill="#F1F1F1" height="2" style="stroke:#181818;stroke-width:0.5;" width="4" x="632" y="280.91"/><rect fill="#F1F1F1" height="2" style="stroke:#181818;stroke-width:0.5;" width="4" x="632" y="284.91"/><text fill="#000000" font-family="sans-serif" font-size="14" lengthAdjust="spacing" textLength="65" x="564" y="307.4452">libClientB</text></g><!--link parent to lib1--><g id="link_parent_lib1"><path codeLine="42" d="M444.82,68.84 C473.23,86.54 504.3374,105.9174 534.7874,124.8874 " fill="none" id="parent-to-lib1" style="stroke:#181818;stroke-width:1.0;stroke-dasharray:7.0,7.0;"/><polygon fill="#181818" points="539.88,128.06,534.3562,119.906,535.6362,125.4161,530.126,126.6961,539.88,128.06" style="stroke:#181818;stroke-width:1.0;"/></g><!--link parent to lib2--><g id="link_parent_lib2"><path codeLine="43" d="M396.5,68.68 C396.5,86.52 396.5,103.34 396.5,122.44 " fill="none" id="parent-to-lib2" style="stroke:#181818;stroke-width:1.0;stroke-dasharray:7.0,7.0;"/><polygon fill="#181818" points="396.5,128.44,400.5,119.44,396.5,123.44,392.5,119.44,396.5,128.44" style="stroke:#181818;stroke-width:1.0;"/></g><!--link parent to lib3--><g id="link_parent_lib3"><path codeLine="44" d="M336.63,68.84 C301.43,86.54 261.9303,106.3942 224.2103,125.3642 " fill="none" id="parent-to-lib3" style="stroke:#181818;stroke-width:1.0;stroke-dasharray:7.0,7.0;"/><polygon fill="#181818" points="218.85,128.06,228.6876,127.5899,223.3169,125.8135,225.0933,120.4428,218.85,128.06" style="stroke:#181818;stroke-width:1.0;"/></g><!--link lib1 to docker--><g id="link_lib1_docker"><path codeLine="45" d="M539.99,206.76 C509.57,225.72 478.4627,245.0976 450.0327,262.8076 " fill="none" id="lib1-to-docker" style="stroke:#181818;stroke-width:1.0;stroke-dasharray:7.0,7.0;"/><polygon fill="#181818" points="444.94,265.98,454.694,264.6165,449.1839,263.3363,450.4641,257.8262,444.94,265.98" style="stroke:#181818;stroke-width:1.0;"/></g><!--link lib2 to docker--><g id="link_lib2_docker"><path codeLine="46" d="M396.5,206.76 C396.5,225.72 396.5,242.27 396.5,259.98 " fill="none" id="lib2-to-docker" style="stroke:#181818;stroke-width:1.0;stroke-dasharray:7.0,7.0;"/><polygon fill="#181818" points="396.5,265.98,400.5,256.98,396.5,260.98,392.5,256.98,396.5,265.98" style="stroke:#181818;stroke-width:1.0;"/></g><!--link lib3 to docker--><g id="link_lib3_docker"><path codeLine="47" d="M218.71,206.76 C256.99,226.01 297.2895,246.2746 332.7495,264.1046 " fill="none" id="lib3-to-docker" style="stroke:#181818;stroke-width:1.0;stroke-dasharray:7.0,7.0;"/><polygon fill="#181818" points="338.11,266.8,331.8662,259.1833,333.6429,264.5539,328.2723,266.3306,338.11,266.8" style="stroke:#181818;stroke-width:1.0;"/></g><!--link lib1 to libClientB--><g id="link_lib1_libClientB"><path codeLine="48" d="M601.5,206.76 C601.5,228.51 601.5,248.99 601.5,267.46 " fill="none" id="lib1-to-libClientB" style="stroke:#181818;stroke-width:1.0;stroke-dasharray:7.0,7.0;"/><polygon fill="#181818" points="601.5,273.46,605.5,264.46,601.5,268.46,597.5,264.46,601.5,273.46" style="stroke:#181818;stroke-width:1.0;"/></g><!--link lib2 to libClientA--><g id="link_lib2_libClientA"><path codeLine="49" d="M336.49,206.76 C302.44,228.51 266.0272,251.7613 237.0972,270.2313 " fill="none" id="lib2-to-libClientA" style="stroke:#181818;stroke-width:1.0;stroke-dasharray:7.0,7.0;"/><polygon fill="#181818" points="232.04,273.46,241.7783,271.9884,236.2543,270.7694,237.4733,265.2455,232.04,273.46" style="stroke:#181818;stroke-width:1.0;"/></g><!--link lib3 to libClientA--><g id="link_lib3_libClientA"><path codeLine="50" d="M158.7,206.76 C167.9,228.51 176.7532,249.4637 184.5632,267.9337 " fill="none" id="lib3-to-libClientA" style="stroke:#181818;stroke-width:1.0;stroke-dasharray:7.0,7.0;"/><polygon fill="#181818" points="186.9,273.46,187.079,263.6128,184.9527,268.8548,179.7107,266.7285,186.9,273.46" style="stroke:#181818;stroke-width:1.0;"/></g><!--link docker to deployMSPA--><g id="link_docker_deployMSPA"><path codeLine="51" d="M360.42,328.3 C338.74,346.41 315.8548,365.5235 294.1748,383.6335 " fill="none" id="docker-to-deployMSPA" style="stroke:#181818;stroke-width:1.0;stroke-dasharray:7.0,7.0;"/><polygon fill="#181818" points="289.57,387.48,299.0416,384.7801,293.4073,384.2746,293.9128,378.6403,289.57,387.48" style="stroke:#181818;stroke-width:1.0;"/></g><!--link docker to deployMSPB--><g id="link_docker_deployMSPB"><path codeLine="52" d="M432.58,328.3 C454.26,346.41 477.1452,365.5235 498.8252,383.6335 " fill="none" id="docker-to-deployMSPB" style="stroke:#181818;stroke-width:1.0;stroke-dasharray:7.0,7.0;"/><polygon fill="#181818" points="503.43,387.48,499.0872,378.6403,499.5927,384.2746,493.9584,384.7801,503.43,387.48" style="stroke:#181818;stroke-width:1.0;"/></g><!--SRC=[jPBBQiCm44Nt-WgHRP4XyRO4ua9tWKA_G96KP1ez1bbkOah_lR8iEyw3K2ZLIdD7Su-66QwrEneuWTqHuZOVIWGw0sGWaI7toeOPvJNjh_IBq7YUfK9bfRAYNNFBTyh4tB9FeMvsOAVozuslXWtZJTWp1r9uJ82epRDzqULimH4AuMnGfp2LmQ2UnkZ12a2k7u6KuQ07pk9VE10Tl50OM1sSZzsF1GEt7BZZqrlsENNcdxL7Vv1E79HFhFwQQK_KVDeuFt68VyfAVe1DlOzETurOdB5sBLk_lxreY8DSzTP9ZU9gjEV7cjObhLihQEnb- -gqL7wI5DerSkkyuG6SpHQ_vbQNtEhlN2ASGMUxVOvJoTtT4oj2yjuNnJ9jw5Myk8fBajQuY_fkI5gtoxYyYkT3zG0TQoQ_6-icMfvYSXl7SbUjo0y0]--></g></svg>