<?xml version="1.0" encoding="us-ascii" standalone="no"?><svg xmlns="http://www.w3.org/2000/svg" xmlns:xlink="http://www.w3.org/1999/xlink" contentStyleType="text/css" height="207px" preserveAspectRatio="none" style="width:591px;height:207px;background:#FFFFFF;" version="1.1" viewBox="0 0 591 207" width="591px" zoomAndPan="magnify"><defs/><g><!--entity Dev--><g id="elem_Dev"><rect fill="#F1F1F1" height="46.4883" rx="2.5" ry="2.5" style="stroke:#181818;stroke-width:0.5;" width="109" x="7" y="7"/><rect fill="#F1F1F1" height="10" style="stroke:#181818;stroke-width:0.5;" width="15" x="96" y="12"/><rect fill="#F1F1F1" height="2" style="stroke:#181818;stroke-width:0.5;" width="4" x="94" y="14"/><rect fill="#F1F1F1" height="2" style="stroke:#181818;stroke-width:0.5;" width="4" x="94" y="18"/><text fill="#000000" font-family="sans-serif" font-size="14" lengthAdjust="spacing" textLength="69" x="22" y="40.5352">Developer</text></g><!--entity Olevi--><g id="elem_Olevi"><rect fill="#F1F1F1" height="46.4883" rx="2.5" ry="2.5" style="stroke:#181818;stroke-width:0.5;" width="74" x="151.5" y="7"/><rect fill="#F1F1F1" height="10" style="stroke:#181818;stroke-width:0.5;" width="15" x="205.5" y="12"/><rect fill="#F1F1F1" height="2" style="stroke:#181818;stroke-width:0.5;" width="4" x="203.5" y="14"/><rect fill="#F1F1F1" height="2" style="stroke:#181818;stroke-width:0.5;" width="4" x="203.5" y="18"/><text fill="#000000" font-family="sans-serif" font-size="14" lengthAdjust="spacing" textLength="34" x="166.5" y="40.5352">Olevi</text></g><!--entity Reseller--><g id="elem_Reseller"><rect fill="#F1F1F1" height="46.4883" rx="2.5" ry="2.5" style="stroke:#181818;stroke-width:0.5;" width="94" x="253.5" y="128.49"/><rect fill="#F1F1F1" height="10" style="stroke:#181818;stroke-width:0.5;" width="15" x="327.5" y="133.49"/><rect fill="#F1F1F1" height="2" style="stroke:#181818;stroke-width:0.5;" width="4" x="325.5" y="135.49"/><rect fill="#F1F1F1" height="2" style="stroke:#181818;stroke-width:0.5;" width="4" x="325.5" y="139.49"/><text fill="#000000" font-family="sans-serif" font-size="14" lengthAdjust="spacing" textLength="54" x="268.5" y="162.0252">Reseller</text></g><!--entity Support--><g id="elem_Support"><rect fill="#F1F1F1" height="46.4883" rx="2.5" ry="2.5" style="stroke:#181818;stroke-width:0.5;" width="95" x="260" y="7"/><rect fill="#F1F1F1" height="10" style="stroke:#181818;stroke-width:0.5;" width="15" x="335" y="12"/><rect fill="#F1F1F1" height="2" style="stroke:#181818;stroke-width:0.5;" width="4" x="333" y="14"/><rect fill="#F1F1F1" height="2" style="stroke:#181818;stroke-width:0.5;" width="4" x="333" y="18"/><text fill="#000000" font-family="sans-serif" font-size="14" lengthAdjust="spacing" textLength="55" x="275" y="40.5352">Support</text></g><!--entity Customer--><g id="elem_Customer"><rect fill="#F1F1F1" height="46.4883" rx="2.5" ry="2.5" style="stroke:#181818;stroke-width:0.5;" width="107" x="383" y="128.49"/><rect fill="#F1F1F1" height="10" style="stroke:#181818;stroke-width:0.5;" width="15" x="470" y="133.49"/><rect fill="#F1F1F1" height="2" style="stroke:#181818;stroke-width:0.5;" width="4" x="468" y="135.49"/><rect fill="#F1F1F1" height="2" style="stroke:#181818;stroke-width:0.5;" width="4" x="468" y="139.49"/><text fill="#000000" font-family="sans-serif" font-size="14" lengthAdjust="spacing" textLength="67" x="398" y="162.0252">Customer</text></g><!--entity License--><g id="elem_License"><ellipse cx="202.5" cy="151.74" fill="#FFFF00" rx="8" ry="8" style="stroke:#181818;stroke-width:0.5;"/><text fill="#000000" font-family="sans-serif" font-size="14" lengthAdjust="spacing" textLength="50" x="165.5" y="182.2752">License</text><text fill="#000000" font-family="sans-serif" font-size="14" lengthAdjust="spacing" textLength="74" x="165.5" y="198.7634">agreement</text></g><!--entity User--><g id="elem_User"><ellipse cx="554.5" cy="121.99" fill="#F1F1F1" rx="8" ry="8" style="stroke:#181818;stroke-width:0.5;"/><path d="M554.5,129.99 L554.5,156.99 M541.5,137.99 L567.5,137.99 M554.5,156.99 L541.5,171.99 M554.5,156.99 L567.5,171.99 " fill="none" style="stroke:#181818;stroke-width:0.5;"/><text fill="#000000" font-family="sans-serif" font-size="14" lengthAdjust="spacing" textLength="60" x="524.5" y="187.0252">End user</text></g><!--link Dev to Olevi--><g id="link_Dev_Olevi"><path d="M116.07,30.25 C127.76,30.25 133.46,30.25 145.15,30.25 " fill="none" id="Dev-to-Olevi" style="stroke:#181818;stroke-width:1.0;"/><polygon fill="#181818" points="151.15,30.25,142.15,26.25,146.15,30.25,142.15,34.25,151.15,30.25" style="stroke:#181818;stroke-width:1.0;"/></g><!--link Olevi to Reseller--><g id="link_Olevi_Reseller"><path d="M209.57,53.72 C229.59,75.09 255.4371,102.6521 275.4271,123.9821 " fill="none" id="Olevi-to-Reseller" style="stroke:#181818;stroke-width:1.0;"/><polygon fill="#181818" points="279.53,128.36,276.2943,119.0578,276.1109,124.7117,270.457,124.5284,279.53,128.36" style="stroke:#181818;stroke-width:1.0;"/></g><!--link Reseller to Customer--><g id="link_Reseller_Customer"><path d="M347.78,151.74 C359.45,151.74 371.12,151.74 382.78,151.74 " fill="none" id="Reseller-Customer" style="stroke:#181818;stroke-width:1.0;"/></g><!--link Olevi to Support--><g id="link_Olevi_Support"><path d="M225.69,30.25 C236.98,30.25 248.27,30.25 259.56,30.25 " fill="none" id="Olevi-Support" style="stroke:#181818;stroke-width:1.0;"/></g><!--link Support to Reseller--><g id="link_Support_Reseller"><path d="M295.96,53.72 C291.33,75.09 288.871,101.06 291.011,122.39 " fill="none" id="Support-to-Reseller" style="stroke:#181818;stroke-width:1.0;"/><polygon fill="#181818" points="291.61,128.36,294.6916,119.0056,291.1109,123.385,286.7315,119.8043,291.61,128.36" style="stroke:#181818;stroke-width:1.0;"/></g><!--link Support to Reseller--><!--link Olevi to License--><g id="link_Olevi_License"><path d="M191.13,53.72 C194.29,80.63 199.41,124.33 201.53,142.45 " fill="none" id="Olevi-License" style="stroke:#181818;stroke-width:1.0;"/></g><!--link License to Customer--><g id="link_License_Customer"><path d="M206.16,142.24 C212.79,126.59 228.39,95.9 253,83.49 C290.7,64.49 308.03,69.87 348,83.49 C373.89,92.32 393.8014,107.9443 410.3314,123.9643 " fill="none" id="License-to-Customer" style="stroke:#181818;stroke-width:1.0;"/><polygon fill="#181818" points="414.64,128.14,410.9609,119.0041,411.0495,124.6603,405.3934,124.7489,414.64,128.14" style="stroke:#181818;stroke-width:1.0;"/></g><!--link Customer to User--><g id="link_Customer_User"><path d="M490.43,151.74 C501.69,151.74 512.95,151.74 524.22,151.74 " fill="none" id="Customer-User" style="stroke:#181818;stroke-width:1.0;"/></g><!--SRC=[JL11RWCX3Bpp2Yjtlj13anmgLOhKgeTeimS4ReB2siYmoVV3Hh0B1_3OOu-PTFSKZPW9lYYZ_1kBdyRUhy8pkJq75ZXZ2FnKol8KcP0o7F01Wu9oIeI18ye8NVqKyE4x_8Efp42fJGsE7ULtZf4bLqP5FM4_fymJYbABkXRzKMNUDnJOngfLJczTbTKcgwRNzst9uUQTGngTxgg-6GIxRs-H4bx8N0LnAlljm2IewIOcUitKTv7RFc9iBlR-fTMO8pcOqs9C8vMDbxfw0G00]--></g></svg>