<?xml version="1.0" encoding="UTF-8" standalone="no"?><svg xmlns="http://www.w3.org/2000/svg" xmlns:xlink="http://www.w3.org/1999/xlink" contentStyleType="text/css" height="163px" preserveAspectRatio="none" style="width:546px;height:163px;background:#FFFFFF;" version="1.1" viewBox="0 0 546 163" width="546px" zoomAndPan="magnify"><defs/><g><g id="elem_GoogleIdP"><rect fill="#F1F1F1" height="44.9766" style="stroke:#181818;stroke-width:0.5;" width="180" x="98.5" y="7"/><text fill="#000000" font-family="sans-serif" font-size="14" lengthAdjust="spacing" textLength="166" x="105.5" y="22.5352">Google Identity Platform</text><line style="stroke:#181818;stroke-width:0.5;" x1="99.5" x2="277.5" y1="27.4883" y2="27.4883"/><text fill="#000000" font-family="sans-serif" font-size="14" lengthAdjust="spacing" textLength="79" x="104.5" y="45.0234">Company A</text></g><g id="elem_AAD"><rect fill="#F1F1F1" height="44.9766" style="stroke:#181818;stroke-width:0.5;" width="89" x="314" y="7"/><text fill="#000000" font-family="sans-serif" font-size="14" lengthAdjust="spacing" textLength="65" x="326" y="22.5352">Azure AD</text><line style="stroke:#181818;stroke-width:0.5;" x1="315" x2="402" y1="27.4883" y2="27.4883"/><text fill="#000000" font-family="sans-serif" font-size="14" lengthAdjust="spacing" textLength="77" x="320" y="45.0234">Company B</text></g><g id="elem_3rdPa"><rect fill="#F1F1F1" height="44.9766" style="stroke:#181818;stroke-width:0.5;" width="155" x="7" y="112"/><text fill="#000000" font-family="sans-serif" font-size="14" lengthAdjust="spacing" textLength="141" x="14" y="127.5352">Third Party Service A</text><line style="stroke:#181818;stroke-width:0.5;" x1="8" x2="161" y1="132.4883" y2="132.4883"/><text fill="#000000" font-family="sans-serif" font-size="14" lengthAdjust="spacing" textLength="99" x="13" y="150.0234">Auth Selection</text></g><g id="elem_3rdPb"><rect fill="#F1F1F1" height="44.9766" style="stroke:#181818;stroke-width:0.5;" width="153" x="197" y="112"/><text fill="#000000" font-family="sans-serif" font-size="14" lengthAdjust="spacing" textLength="139" x="204" y="127.5352">Third Party Service B</text><line style="stroke:#181818;stroke-width:0.5;" x1="198" x2="349" y1="132.4883" y2="132.4883"/><text fill="#000000" font-family="sans-serif" font-size="14" lengthAdjust="spacing" textLength="99" x="203" y="150.0234">Auth Selection</text></g><g id="elem_3rdPc"><rect fill="#F1F1F1" height="44.9766" style="stroke:#181818;stroke-width:0.5;" width="155" x="385" y="112"/><text fill="#000000" font-family="sans-serif" font-size="14" lengthAdjust="spacing" textLength="141" x="392" y="127.5352">Third Party Service C</text><line style="stroke:#181818;stroke-width:0.5;" x1="386" x2="539" y1="132.4883" y2="132.4883"/><text fill="#000000" font-family="sans-serif" font-size="14" lengthAdjust="spacing" textLength="99" x="391" y="150.0234">Auth Selection</text></g><!--MD5=[e1dc0616e29e00488aafcb6c5f8418f3]
reverse link AAD to 3rdPa--><g id="link_AAD_3rdPa"><path codeLine="14" d="M293.7,54.86 C247.93,72.06 187.1,94.93 142.84,111.57 " fill="none" id="AAD-backto-3rdPa" style="stroke:#181818;stroke-width:1.0;"/><polygon fill="none" points="290.96,48.41,312.14,47.93,295.89,61.52,290.96,48.41" style="stroke:#181818;stroke-width:1.0;"/></g><!--MD5=[b54f57ba73fdbfea9c5df9f4db2b9e15]
reverse link AAD to 3rdPb--><g id="link_AAD_3rdPb"><path codeLine="15" d="M326.81,68.9 C314.89,83.35 301.75,99.27 291.5,111.69 " fill="none" id="AAD-backto-3rdPb" style="stroke:#181818;stroke-width:1.0;"/><polygon fill="none" points="321.38,64.48,339.51,53.51,332.18,73.39,321.38,64.48" style="stroke:#181818;stroke-width:1.0;"/></g><!--MD5=[f6c5237a93975032fac02b4ac6548173]
reverse link AAD to 3rdPc--><g id="link_AAD_3rdPc"><path codeLine="16" d="M395.84,67.48 C410.8,82.29 427.52,98.86 440.48,111.69 " fill="none" id="AAD-backto-3rdPc" style="stroke:#181818;stroke-width:1.0;"/><polygon fill="none" points="390.92,72.46,381.63,53.41,400.77,62.51,390.92,72.46" style="stroke:#181818;stroke-width:1.0;"/></g><!--MD5=[c1336e6e3a71b958046e117cc2f36973]
reverse link GoogleIdP to 3rdPa--><g id="link_GoogleIdP_3rdPa"><path codeLine="18" d="M151.16,67.48 C136.2,82.29 119.48,98.86 106.52,111.69 " fill="none" id="GoogleIdP-backto-3rdPa" style="stroke:#181818;stroke-width:1.0;"/><polygon fill="none" points="146.23,62.51,165.37,53.41,156.08,72.46,146.23,62.51" style="stroke:#181818;stroke-width:1.0;"/></g><!--MD5=[d912351aceff033dedc9d14d32e357c5]
reverse link GoogleIdP to 3rdPb--><g id="link_GoogleIdP_3rdPb"><path codeLine="19" d="M220.19,68.9 C232.11,83.35 245.25,99.27 255.5,111.69 " fill="none" id="GoogleIdP-backto-3rdPb" style="stroke:#181818;stroke-width:1.0;"/><polygon fill="none" points="214.82,73.39,207.49,53.51,225.62,64.48,214.82,73.39" style="stroke:#181818;stroke-width:1.0;"/></g><!--MD5=[d0efec07e38d5d8e6ba23719f3d3523e]
reverse link GoogleIdP to 3rdPc--><g id="link_GoogleIdP_3rdPc"><path codeLine="20" d="M266.88,59.97 C310.6,76.4 364.14,96.53 404.15,111.56 " fill="none" id="GoogleIdP-backto-3rdPc" style="stroke:#181818;stroke-width:1.0;"/><polygon fill="none" points="264.62,66.59,248.36,53,269.54,53.49,264.62,66.59" style="stroke:#181818;stroke-width:1.0;"/></g><!--MD5=[f1c96f3754376597d519c01f5179092c]
@startuml useCase-idpMergerWithoutConsolidation

object "Google Identity Platform" as GoogleIdP
    GoogleIdP : Company A
object "Azure AD" as AAD
    AAD : Company B

object "Third Party Service A" as 3rdPa
    3rdPa : Auth Selection
object "Third Party Service B" as 3rdPb
    3rdPb : Auth Selection
object "Third Party Service C" as 3rdPc
    3rdPc : Auth Selection

AAD <|-d- 3rdPa
AAD <|-d- 3rdPb
AAD <|-d- 3rdPc

GoogleIdP <|-d- 3rdPa
GoogleIdP <|-d- 3rdPb
GoogleIdP <|-d- 3rdPc


@end

PlantUML version 1.2022.7(Mon Aug 22 20:01:30 EEST 2022)
(GPL source distribution)
Java Runtime: OpenJDK Runtime Environment
JVM: OpenJDK 64-Bit Server VM
Default Encoding: UTF-8
Language: en
Country: FI
--></g></svg>