<?xml version="1.0" encoding="us-ascii" standalone="no"?><svg xmlns="http://www.w3.org/2000/svg" xmlns:xlink="http://www.w3.org/1999/xlink" contentStyleType="text/css" height="495px" preserveAspectRatio="none" style="width:351px;height:495px;background:#FFFFFF;" version="1.1" viewBox="0 0 351 495" width="351px" zoomAndPan="magnify"><defs/><g><!--class Employees--><g id="elem_Employees"><rect codeLine="3" fill="#F1F1F1" height="97.4648" id="Employees" rx="2.5" ry="2.5" style="stroke:#181818;stroke-width:0.5;" width="174" x="170.5" y="7"/><ellipse cx="216.75" cy="23" fill="#ADD1B2" rx="11" ry="11" style="stroke:#181818;stroke-width:1.0;"/><path d="M220.3643,29.5 L212.6445,29.5 L212.6445,17.1069 L220.3643,17.1069 L220.3643,19.2651 L215.0933,19.2651 L215.0933,21.938 L219.8662,21.938 L219.8662,24.0962 L215.0933,24.0962 L215.0933,27.3418 L220.3643,27.3418 Z " fill="#000000"/><text fill="#000000" font-family="sans-serif" font-size="14" lengthAdjust="spacing" textLength="73" x="237.25" y="28.291">Employees</text><line style="stroke:#181818;stroke-width:0.5;" x1="171.5" x2="343.5" y1="39" y2="39"/><text fill="#000000" font-family="sans-serif" font-size="14" lengthAdjust="spacing" textLength="162" x="176.5" y="56.5352">Employees authenticate</text><text fill="#000000" font-family="sans-serif" font-size="14" lengthAdjust="spacing" textLength="128" x="176.5" y="73.0234">directly using their</text><text fill="#000000" font-family="sans-serif" font-size="14" lengthAdjust="spacing" textLength="61" x="176.5" y="89.5117">Entra IDs</text><line style="stroke:#181818;stroke-width:0.5;" x1="171.5" x2="343.5" y1="96.4648" y2="96.4648"/></g><g id="elem_Olevi"><rect fill="#F1F1F1" height="77.9531" style="stroke:#181818;stroke-width:0.5;" width="167" x="7" y="196.46"/><text fill="#000000" font-family="sans-serif" font-size="14" lengthAdjust="spacing" textLength="34" x="73.5" y="211.9952">Olevi</text><line style="stroke:#181818;stroke-width:0.5;" x1="8" x2="173" y1="216.9483" y2="216.9483"/><text fill="#000000" font-family="sans-serif" font-size="14" lengthAdjust="spacing" textLength="155" x="13" y="234.4834">Olevi can handle guest</text><text fill="#000000" font-family="sans-serif" font-size="14" lengthAdjust="spacing" textLength="116" x="13" y="250.9717">authentication in</text><text fill="#000000" font-family="sans-serif" font-size="14" lengthAdjust="spacing" textLength="145" x="13" y="267.46">consolidated manner</text></g><!--entity EntraID--><g id="elem_EntraID"><rect fill="#F1F1F1" height="46.4883" rx="2.5" ry="2.5" style="stroke:#181818;stroke-width:0.5;" width="90" x="45.5" y="32.48"/><rect fill="#F1F1F1" height="10" style="stroke:#181818;stroke-width:0.5;" width="15" x="115.5" y="37.48"/><rect fill="#F1F1F1" height="2" style="stroke:#181818;stroke-width:0.5;" width="4" x="113.5" y="39.48"/><rect fill="#F1F1F1" height="2" style="stroke:#181818;stroke-width:0.5;" width="4" x="113.5" y="43.48"/><text fill="#000000" font-family="sans-serif" font-size="14" lengthAdjust="spacing" textLength="50" x="60.5" y="66.0152">EntraID</text></g><!--entity PartnerA--><g id="elem_PartnerA"><rect fill="#F1F1F1" height="46.4883" rx="2.5" ry="2.5" style="stroke:#181818;stroke-width:0.5;" width="100" x="208.5" y="212.19"/><rect fill="#F1F1F1" height="10" style="stroke:#181818;stroke-width:0.5;" width="15" x="288.5" y="217.19"/><rect fill="#F1F1F1" height="2" style="stroke:#181818;stroke-width:0.5;" width="4" x="286.5" y="219.19"/><rect fill="#F1F1F1" height="2" style="stroke:#181818;stroke-width:0.5;" width="4" x="286.5" y="223.19"/><text fill="#000000" font-family="sans-serif" font-size="14" lengthAdjust="spacing" textLength="60" x="223.5" y="245.7252">PartnerA</text></g><!--entity PartnerB--><g id="elem_PartnerB"><rect fill="#F1F1F1" height="46.4883" rx="2.5" ry="2.5" style="stroke:#181818;stroke-width:0.5;" width="98" x="143.5" y="335.41"/><rect fill="#F1F1F1" height="10" style="stroke:#181818;stroke-width:0.5;" width="15" x="221.5" y="340.41"/><rect fill="#F1F1F1" height="2" style="stroke:#181818;stroke-width:0.5;" width="4" x="219.5" y="342.41"/><rect fill="#F1F1F1" height="2" style="stroke:#181818;stroke-width:0.5;" width="4" x="219.5" y="346.41"/><text fill="#000000" font-family="sans-serif" font-size="14" lengthAdjust="spacing" textLength="58" x="158.5" y="368.9452">PartnerB</text></g><!--entity PartnerC--><g id="elem_PartnerC"><rect fill="#F1F1F1" height="46.4883" rx="2.5" ry="2.5" style="stroke:#181818;stroke-width:0.5;" width="100" x="60.5" y="442.9"/><rect fill="#F1F1F1" height="10" style="stroke:#181818;stroke-width:0.5;" width="15" x="140.5" y="447.9"/><rect fill="#F1F1F1" height="2" style="stroke:#181818;stroke-width:0.5;" width="4" x="138.5" y="449.9"/><rect fill="#F1F1F1" height="2" style="stroke:#181818;stroke-width:0.5;" width="4" x="138.5" y="453.9"/><text fill="#000000" font-family="sans-serif" font-size="14" lengthAdjust="spacing" textLength="60" x="75.5" y="476.4352">PartnerC</text></g><!--reverse link EntraID to Employees--><g id="link_EntraID_Employees"><path codeLine="19" d="M141.84,55.73 C153.24,55.73 158.65,55.73 170.06,55.73 " fill="none" id="EntraID-backto-Employees" style="stroke:#181818;stroke-width:1.0;"/><polygon fill="#181818" points="135.84,55.73,144.84,59.73,140.84,55.73,144.84,51.73,135.84,55.73" style="stroke:#181818;stroke-width:1.0;"/></g><!--reverse link EntraID to Olevi--><g id="link_EntraID_Olevi"><path codeLine="20" d="M90.5,85.23 C90.5,114.65 90.5,160.62 90.5,196.25 " fill="none" id="EntraID-backto-Olevi" style="stroke:#181818;stroke-width:1.0;"/><polygon fill="#181818" points="90.5,79.23,86.5,88.23,90.5,84.23,94.5,88.23,90.5,79.23" style="stroke:#181818;stroke-width:1.0;"/><text fill="#000000" font-family="sans-serif" font-size="13" lengthAdjust="spacing" textLength="82" x="91.5" y="148.0284">[Provisioning</text><text fill="#000000" font-family="sans-serif" font-size="13" lengthAdjust="spacing" textLength="57" x="104" y="163.3389">possible]</text></g><!--reverse link Olevi to PartnerA--><g id="link_Olevi_PartnerA"><path codeLine="21" d="M180.17,235.44 C191.48,235.44 196.79,235.44 208.1,235.44 " fill="none" id="Olevi-backto-PartnerA" style="stroke:#181818;stroke-width:1.0;"/><polygon fill="#181818" points="174.17,235.44,183.17,239.44,179.17,235.44,183.17,231.44,174.17,235.44" style="stroke:#181818;stroke-width:1.0;"/></g><!--reverse link Olevi to PartnerB--><g id="link_Olevi_PartnerB"><path codeLine="22" d="M126.6338,279.3803 C143.3338,299.2203 159.27,318.16 173.49,335.07 " fill="none" id="Olevi-backto-PartnerB" style="stroke:#181818;stroke-width:1.0;"/><polygon fill="#181818" points="122.77,274.79,125.5055,284.2513,125.9898,278.6153,131.6259,279.0996,122.77,274.79" style="stroke:#181818;stroke-width:1.0;"/></g><!--reverse link Olevi to PartnerC--><g id="link_Olevi_PartnerC"><path codeLine="23" d="M94.3724,280.6972 C98.5624,328.6372 105.09,403.25 108.51,442.41 " fill="none" id="Olevi-backto-PartnerC" style="stroke:#181818;stroke-width:1.0;"/><polygon fill="#181818" points="93.85,274.72,90.6488,284.0341,94.2853,279.701,98.6184,283.3375,93.85,274.72" style="stroke:#181818;stroke-width:1.0;"/></g><!--link Employees to PartnerA--><!--link PartnerA to PartnerB--><!--link PartnerB to PartnerC--><!--SRC=[RKynRiCm3Dpv2dx07oYwr4c7JCsUPb0i8cOXauOafpMA_hsCbQGkR4tKtV7kw4BGpuw_MCu099dpYAzT7tGaIlWDQE_lxuRSNaMDopHHdYCrEOmu97D0OpbYMP8S7Uws2Nu0zFHXCdmBTE6RQPaR9zWwyO7mF53A4pLBOHLacT169MbWRz4UEoT2qQmRxNeLKvV0tNQ6x5tCfdfPGlKIsW3S7F2vYjNiwFzuwVs4XttK2oShQ8U_IwyfyIdG4OfWqZuABB5w1RjMUAHMXvQz9pdwcSzzM6FhErkliHlu1G00]--></g></svg>