<?xml version="1.0" encoding="us-ascii" standalone="no"?><svg xmlns="http://www.w3.org/2000/svg" xmlns:xlink="http://www.w3.org/1999/xlink" contentStyleType="text/css" height="911px" preserveAspectRatio="none" style="width:1253px;height:911px;background:#FFFFFF;" version="1.1" viewBox="0 0 1253 911" width="1253px" zoomAndPan="magnify"><defs/><g><line style="stroke:#181818;stroke-width:0.5;stroke-dasharray:5.0,5.0;" x1="23" x2="23" y1="81.4883" y2="830.9414"/><line style="stroke:#181818;stroke-width:0.5;stroke-dasharray:5.0,5.0;" x1="351" x2="351" y1="81.4883" y2="830.9414"/><line style="stroke:#181818;stroke-width:0.5;stroke-dasharray:5.0,5.0;" x1="690.5" x2="690.5" y1="81.4883" y2="830.9414"/><line style="stroke:#181818;stroke-width:0.5;stroke-dasharray:5.0,5.0;" x1="863.5" x2="863.5" y1="81.4883" y2="830.9414"/><line style="stroke:#181818;stroke-width:0.5;stroke-dasharray:5.0,5.0;" x1="1117" x2="1117" y1="81.4883" y2="830.9414"/><line style="stroke:#181818;stroke-width:0.5;stroke-dasharray:5.0,5.0;" x1="1210" x2="1210" y1="81.4883" y2="830.9414"/><text fill="#000000" font-family="sans-serif" font-size="14" lengthAdjust="spacing" textLength="31" x="5" y="78.5352">User</text><ellipse cx="23.5" cy="13.5" fill="#E2E2F0" rx="8" ry="8" style="stroke:#181818;stroke-width:0.5;"/><path d="M23.5,21.5 L23.5,48.5 M10.5,29.5 L36.5,29.5 M23.5,48.5 L10.5,63.5 M23.5,48.5 L36.5,63.5 " fill="none" style="stroke:#181818;stroke-width:0.5;"/><text fill="#000000" font-family="sans-serif" font-size="14" lengthAdjust="spacing" textLength="31" x="5" y="843.4766">User</text><ellipse cx="23.5" cy="854.9297" fill="#E2E2F0" rx="8" ry="8" style="stroke:#181818;stroke-width:0.5;"/><path d="M23.5,862.9297 L23.5,889.9297 M10.5,870.9297 L36.5,870.9297 M23.5,889.9297 L10.5,904.9297 M23.5,889.9297 L36.5,904.9297 " fill="none" style="stroke:#181818;stroke-width:0.5;"/><text fill="#000000" font-family="sans-serif" font-size="14" lengthAdjust="spacing" textLength="19" x="339" y="78.5352">HR</text><ellipse cx="351.5" cy="13.5" fill="#E2E2F0" rx="8" ry="8" style="stroke:#181818;stroke-width:0.5;"/><path d="M351.5,21.5 L351.5,48.5 M338.5,29.5 L364.5,29.5 M351.5,48.5 L338.5,63.5 M351.5,48.5 L364.5,63.5 " fill="none" style="stroke:#181818;stroke-width:0.5;"/><text fill="#000000" font-family="sans-serif" font-size="14" lengthAdjust="spacing" textLength="19" x="339" y="843.4766">HR</text><ellipse cx="351.5" cy="854.9297" fill="#E2E2F0" rx="8" ry="8" style="stroke:#181818;stroke-width:0.5;"/><path d="M351.5,862.9297 L351.5,889.9297 M338.5,870.9297 L364.5,870.9297 M351.5,889.9297 L338.5,904.9297 M351.5,889.9297 L364.5,904.9297 " fill="none" style="stroke:#181818;stroke-width:0.5;"/><rect fill="#E2E2F0" height="30.4883" rx="2.5" ry="2.5" style="stroke:#181818;stroke-width:0.5;" width="42" x="669.5" y="50"/><text fill="#000000" font-family="sans-serif" font-size="14" lengthAdjust="spacing" textLength="28" x="676.5" y="70.5352">App</text><rect fill="#E2E2F0" height="30.4883" rx="2.5" ry="2.5" style="stroke:#181818;stroke-width:0.5;" width="42" x="669.5" y="829.9414"/><text fill="#000000" font-family="sans-serif" font-size="14" lengthAdjust="spacing" textLength="28" x="676.5" y="850.4766">App</text><rect fill="#E2E2F0" height="30.4883" rx="2.5" ry="2.5" style="stroke:#181818;stroke-width:0.5;" width="48" x="839.5" y="50"/><text fill="#000000" font-family="sans-serif" font-size="14" lengthAdjust="spacing" textLength="34" x="846.5" y="70.5352">Olevi</text><rect fill="#E2E2F0" height="30.4883" rx="2.5" ry="2.5" style="stroke:#181818;stroke-width:0.5;" width="48" x="839.5" y="829.9414"/><text fill="#000000" font-family="sans-serif" font-size="14" lengthAdjust="spacing" textLength="34" x="846.5" y="850.4766">Olevi</text><rect fill="#E2E2F0" height="30.4883" rx="2.5" ry="2.5" style="stroke:#181818;stroke-width:0.5;" width="91" x="1072" y="50"/><text fill="#000000" font-family="sans-serif" font-size="14" lengthAdjust="spacing" textLength="77" x="1079" y="70.5352">MgmForms</text><rect fill="#E2E2F0" height="30.4883" rx="2.5" ry="2.5" style="stroke:#181818;stroke-width:0.5;" width="91" x="1072" y="829.9414"/><text fill="#000000" font-family="sans-serif" font-size="14" lengthAdjust="spacing" textLength="77" x="1079" y="850.4766">MgmForms</text><rect fill="#E2E2F0" height="30.4883" rx="2.5" ry="2.5" style="stroke:#181818;stroke-width:0.5;" width="74" x="1173" y="50"/><text fill="#000000" font-family="sans-serif" font-size="14" lengthAdjust="spacing" textLength="60" x="1180" y="70.5352">Candour</text><rect fill="#E2E2F0" height="30.4883" rx="2.5" ry="2.5" style="stroke:#181818;stroke-width:0.5;" width="74" x="1173" y="829.9414"/><text fill="#000000" font-family="sans-serif" font-size="14" lengthAdjust="spacing" textLength="60" x="1180" y="850.4766">Candour</text><polygon fill="#181818" points="678.5,108.7988,688.5,112.7988,678.5,116.7988,682.5,112.7988" style="stroke:#181818;stroke-width:1.0;"/><line style="stroke:#181818;stroke-width:1.0;" x1="23.5" x2="684.5" y1="112.7988" y2="112.7988"/><text fill="#000000" font-family="sans-serif" font-size="13" lengthAdjust="spacing" textLength="29" x="30.5" y="108.0566">Start</text><polygon fill="#181818" points="851.5,138.1094,861.5,142.1094,851.5,146.1094,855.5,142.1094" style="stroke:#181818;stroke-width:1.0;"/><line style="stroke:#181818;stroke-width:1.0;" x1="690.5" x2="857.5" y1="142.1094" y2="142.1094"/><text fill="#000000" font-family="sans-serif" font-size="13" lengthAdjust="spacing" textLength="139" x="697.5" y="137.3672">Initiate authentication</text><polygon fill="#181818" points="34.5,167.4199,24.5,171.4199,34.5,175.4199,30.5,171.4199" style="stroke:#181818;stroke-width:1.0;"/><line style="stroke:#181818;stroke-width:1.0;" x1="28.5" x2="862.5" y1="171.4199" y2="171.4199"/><text fill="#000000" font-family="sans-serif" font-size="13" lengthAdjust="spacing" textLength="276" x="40.5" y="166.6777">Authenticate with a method providing email</text><polygon fill="#181818" points="678.5,196.7305,688.5,200.7305,678.5,204.7305,682.5,200.7305" style="stroke:#181818;stroke-width:1.0;"/><line style="stroke:#181818;stroke-width:1.0;" x1="23.5" x2="684.5" y1="200.7305" y2="200.7305"/><text fill="#000000" font-family="sans-serif" font-size="13" lengthAdjust="spacing" textLength="168" x="30.5" y="195.9883">I have email based identity</text><polygon fill="#181818" points="34.5,226.041,24.5,230.041,34.5,234.041,30.5,230.041" style="stroke:#181818;stroke-width:1.0;"/><line style="stroke:#181818;stroke-width:1.0;" x1="28.5" x2="689.5" y1="230.041" y2="230.041"/><text fill="#000000" font-family="sans-serif" font-size="13" lengthAdjust="spacing" textLength="196" x="40.5" y="225.2988">Browse through open positions</text><polygon fill="#181818" points="678.5,255.3516,688.5,259.3516,678.5,263.3516,682.5,259.3516" style="stroke:#181818;stroke-width:1.0;"/><line style="stroke:#181818;stroke-width:1.0;" x1="23.5" x2="684.5" y1="259.3516" y2="259.3516"/><text fill="#000000" font-family="sans-serif" font-size="13" lengthAdjust="spacing" textLength="93" x="30.5" y="254.6094">I want to apply</text><polygon fill="#181818" points="362.5,284.6621,352.5,288.6621,362.5,292.6621,358.5,288.6621" style="stroke:#181818;stroke-width:1.0;"/><line style="stroke:#181818;stroke-width:1.0;" x1="356.5" x2="689.5" y1="288.6621" y2="288.6621"/><text fill="#000000" font-family="sans-serif" font-size="13" lengthAdjust="spacing" textLength="315" x="368.5" y="283.9199">Please acknowledge email based user for proofing</text><polygon fill="#181818" points="1105.5,313.9727,1115.5,317.9727,1105.5,321.9727,1109.5,317.9727" style="stroke:#181818;stroke-width:1.0;"/><line style="stroke:#181818;stroke-width:1.0;" x1="351.5" x2="1111.5" y1="317.9727" y2="317.9727"/><text fill="#000000" font-family="sans-serif" font-size="13" lengthAdjust="spacing" textLength="101" x="358.5" y="313.2305">Yes, we approve</text><polygon fill="#181818" points="34.5,343.2832,24.5,347.2832,34.5,351.2832,30.5,347.2832" style="stroke:#181818;stroke-width:1.0;"/><line style="stroke:#181818;stroke-width:1.0;" x1="28.5" x2="689.5" y1="347.2832" y2="347.2832"/><text fill="#000000" font-family="sans-serif" font-size="13" lengthAdjust="spacing" textLength="189" x="40.5" y="342.541">Great, let's proof your identity</text><polygon fill="#181818" points="851.5,372.5938,861.5,376.5938,851.5,380.5938,855.5,376.5938" style="stroke:#181818;stroke-width:1.0;"/><line style="stroke:#181818;stroke-width:1.0;" x1="23.5" x2="857.5" y1="376.5938" y2="376.5938"/><text fill="#000000" font-family="sans-serif" font-size="13" lengthAdjust="spacing" textLength="173" x="30.5" y="371.8516">In need of identity proofing</text><line style="stroke:#181818;stroke-width:1.0;" x1="863.5" x2="905.5" y1="405.9043" y2="405.9043"/><line style="stroke:#181818;stroke-width:1.0;" x1="905.5" x2="905.5" y1="405.9043" y2="418.9043"/><line style="stroke:#181818;stroke-width:1.0;" x1="864.5" x2="905.5" y1="418.9043" y2="418.9043"/><polygon fill="#181818" points="874.5,414.9043,864.5,418.9043,874.5,422.9043,870.5,418.9043" style="stroke:#181818;stroke-width:1.0;"/><text fill="#000000" font-family="sans-serif" font-size="13" lengthAdjust="spacing" textLength="193" x="870.5" y="401.1621">Use previous session for email</text><polygon fill="#181818" points="1105.5,444.2148,1115.5,448.2148,1105.5,452.2148,1109.5,448.2148" style="stroke:#181818;stroke-width:1.0;"/><line style="stroke:#181818;stroke-width:1.0;" x1="863.5" x2="1111.5" y1="448.2148" y2="448.2148"/><text fill="#000000" font-family="sans-serif" font-size="13" lengthAdjust="spacing" textLength="230" x="870.5" y="443.4727">Check user is member in pilot group</text><polygon fill="#181818" points="34.5,473.5254,24.5,477.5254,34.5,481.5254,30.5,477.5254" style="stroke:#181818;stroke-width:1.0;"/><line style="stroke:#181818;stroke-width:1.0;" x1="28.5" x2="862.5" y1="477.5254" y2="477.5254"/><text fill="#000000" font-family="sans-serif" font-size="13" lengthAdjust="spacing" textLength="118" x="40.5" y="472.7832">If not, deny access</text><polygon fill="#181818" points="34.5,502.8359,24.5,506.8359,34.5,510.8359,30.5,506.8359" style="stroke:#181818;stroke-width:1.0;"/><line style="stroke:#181818;stroke-width:1.0;" x1="28.5" x2="862.5" y1="506.8359" y2="506.8359"/><text fill="#000000" font-family="sans-serif" font-size="13" lengthAdjust="spacing" textLength="201" x="40.5" y="502.0938">If yes, initiate Candour proofing</text><polygon fill="#181818" points="1198,532.1465,1208,536.1465,1198,540.1465,1202,536.1465" style="stroke:#181818;stroke-width:1.0;"/><line style="stroke:#181818;stroke-width:1.0;" x1="863.5" x2="1204" y1="536.1465" y2="536.1465"/><text fill="#000000" font-family="sans-serif" font-size="13" lengthAdjust="spacing" textLength="152" x="870.5" y="531.4043">initiate Candour request</text><polygon fill="#181818" points="1198,561.457,1208,565.457,1198,569.457,1202,565.457" style="stroke:#181818;stroke-width:1.0;"/><line style="stroke:#181818;stroke-width:1.0;" x1="23.5" x2="1204" y1="565.457" y2="565.457"/><text fill="#000000" font-family="sans-serif" font-size="13" lengthAdjust="spacing" textLength="128" x="30.5" y="560.7148">Do identity proofing</text><polygon fill="#181818" points="34.5,590.7676,24.5,594.7676,34.5,598.7676,30.5,594.7676" style="stroke:#181818;stroke-width:1.0;"/><line style="stroke:#181818;stroke-width:1.0;" x1="28.5" x2="1209" y1="594.7676" y2="594.7676"/><text fill="#000000" font-family="sans-serif" font-size="13" lengthAdjust="spacing" textLength="107" x="40.5" y="590.0254">Proofing success</text><polygon fill="#181818" points="851.5,620.0781,861.5,624.0781,851.5,628.0781,855.5,624.0781" style="stroke:#181818;stroke-width:1.0;"/><line style="stroke:#181818;stroke-width:1.0;" x1="23.5" x2="857.5" y1="624.0781" y2="624.0781"/><text fill="#000000" font-family="sans-serif" font-size="13" lengthAdjust="spacing" textLength="146" x="30.5" y="619.3359">I'm back, let's continue</text><polygon fill="#181818" points="1198,649.3887,1208,653.3887,1198,657.3887,1202,653.3887" style="stroke:#181818;stroke-width:1.0;"/><line style="stroke:#181818;stroke-width:1.0;" x1="863.5" x2="1204" y1="653.3887" y2="653.3887"/><text fill="#000000" font-family="sans-serif" font-size="13" lengthAdjust="spacing" textLength="68" x="870.5" y="648.6465">Get results</text><line style="stroke:#181818;stroke-width:1.0;" x1="863.5" x2="905.5" y1="682.6992" y2="682.6992"/><line style="stroke:#181818;stroke-width:1.0;" x1="905.5" x2="905.5" y1="682.6992" y2="695.6992"/><line style="stroke:#181818;stroke-width:1.0;" x1="864.5" x2="905.5" y1="695.6992" y2="695.6992"/><polygon fill="#181818" points="874.5,691.6992,864.5,695.6992,874.5,699.6992,870.5,695.6992" style="stroke:#181818;stroke-width:1.0;"/><text fill="#000000" font-family="sans-serif" font-size="13" lengthAdjust="spacing" textLength="103" x="870.5" y="677.957">Combine results</text><polygon fill="#181818" points="701.5,721.0098,691.5,725.0098,701.5,729.0098,697.5,725.0098" style="stroke:#181818;stroke-width:1.0;"/><line style="stroke:#181818;stroke-width:1.0;" x1="695.5" x2="862.5" y1="725.0098" y2="725.0098"/><text fill="#000000" font-family="sans-serif" font-size="13" lengthAdjust="spacing" textLength="149" x="707.5" y="720.2676">Return as authenticated</text><polygon fill="#181818" points="34.5,750.3203,24.5,754.3203,34.5,758.3203,30.5,754.3203" style="stroke:#181818;stroke-width:1.0;"/><line style="stroke:#181818;stroke-width:1.0;" x1="28.5" x2="689.5" y1="754.3203" y2="754.3203"/><text fill="#000000" font-family="sans-serif" font-size="13" lengthAdjust="spacing" textLength="109" x="40.5" y="749.5781">Fill in application</text><polygon fill="#181818" points="339.5,779.6309,349.5,783.6309,339.5,787.6309,343.5,783.6309" style="stroke:#181818;stroke-width:1.0;"/><line style="stroke:#181818;stroke-width:1.0;" x1="23.5" x2="345.5" y1="783.6309" y2="783.6309"/><text fill="#000000" font-family="sans-serif" font-size="13" lengthAdjust="spacing" textLength="304" x="30.5" y="778.8887">Here's my application including proofed identity</text><polygon fill="#181818" points="34.5,808.9414,24.5,812.9414,34.5,816.9414,30.5,812.9414" style="stroke:#181818;stroke-width:1.0;"/><line style="stroke:#181818;stroke-width:1.0;" x1="28.5" x2="350.5" y1="812.9414" y2="812.9414"/><text fill="#000000" font-family="sans-serif" font-size="13" lengthAdjust="spacing" textLength="102" x="40.5" y="808.1992">Great, let's meet</text><!--SRC=[RLExSkCm3Epr5UZIv7v0nStad4di8fECRwwuafPWYMEIK0ZG6lrzGCcIdnqbB1QB1M0geGZ_66DXnkTwMnJv4txzXfUkA-6lc2Y5FlEVJuT7My8cMB5644oI5eFOoeYbK8pXZCiC9RoSemYzbHOCU9IMQkWY7MrjGmFeZNNN9JVGcYDE4TWPnXfidObac8LC1Vv4wXb1saYfQO4w3D0Hsoo6Rpbx4mI4m7ITMtZMsnA-76eDCDKXKE-mRgvBfqopLsjKC-rLSh7UvjIFnhzHz5p2V-Hdw34pQrjuhV4zef5dS2XFF570G2cUEvfbBjv2G2shk1bohhmOV09hhWRrIOc1aLaR7xLEhYxmizPLYzLXwicoJiFlyajjiuu46ZMokntZPW-1j0LLCwXBbPPv01co2NPUZ9K9TUxoNlafKjvZ8tudP5aCMP2lzC2AEMlHy7MA0AT9uwsnJrudMXtcMLIaZ27X0sdlAAg6anE-itn5VcS3tiV7DTkYf1Z0yELfO7sz4c_MkUnvtiJvT6QnUI7N6545-k4IeGcLI-F9Z1vS7iMqa0_spIDAyGC0]--></g></svg>