<?xml version="1.0" encoding="us-ascii" standalone="no"?><svg xmlns="http://www.w3.org/2000/svg" xmlns:xlink="http://www.w3.org/1999/xlink" contentStyleType="text/css" height="635px" preserveAspectRatio="none" style="width:748px;height:635px;background:#FFFFFF;" version="1.1" viewBox="0 0 748 635" width="748px" zoomAndPan="magnify"><defs/><g><line style="stroke:#181818;stroke-width:0.5;stroke-dasharray:5.0,5.0;" x1="23" x2="23" y1="81.4883" y2="554.1465"/><line style="stroke:#181818;stroke-width:0.5;stroke-dasharray:5.0,5.0;" x1="185.5" x2="185.5" y1="81.4883" y2="554.1465"/><line style="stroke:#181818;stroke-width:0.5;stroke-dasharray:5.0,5.0;" x1="358.5" x2="358.5" y1="81.4883" y2="554.1465"/><line style="stroke:#181818;stroke-width:0.5;stroke-dasharray:5.0,5.0;" x1="612" x2="612" y1="81.4883" y2="554.1465"/><line style="stroke:#181818;stroke-width:0.5;stroke-dasharray:5.0,5.0;" x1="705" x2="705" y1="81.4883" y2="554.1465"/><text fill="#000000" font-family="sans-serif" font-size="14" lengthAdjust="spacing" textLength="31" x="5" y="78.5352">User</text><ellipse cx="23.5" cy="13.5" fill="#E2E2F0" rx="8" ry="8" style="stroke:#181818;stroke-width:0.5;"/><path d="M23.5,21.5 L23.5,48.5 M10.5,29.5 L36.5,29.5 M23.5,48.5 L10.5,63.5 M23.5,48.5 L36.5,63.5 " fill="none" style="stroke:#181818;stroke-width:0.5;"/><text fill="#000000" font-family="sans-serif" font-size="14" lengthAdjust="spacing" textLength="31" x="5" y="566.6816">User</text><ellipse cx="23.5" cy="578.1348" fill="#E2E2F0" rx="8" ry="8" style="stroke:#181818;stroke-width:0.5;"/><path d="M23.5,586.1348 L23.5,613.1348 M10.5,594.1348 L36.5,594.1348 M23.5,613.1348 L10.5,628.1348 M23.5,613.1348 L36.5,628.1348 " fill="none" style="stroke:#181818;stroke-width:0.5;"/><rect fill="#E2E2F0" height="30.4883" rx="2.5" ry="2.5" style="stroke:#181818;stroke-width:0.5;" width="42" x="164.5" y="50"/><text fill="#000000" font-family="sans-serif" font-size="14" lengthAdjust="spacing" textLength="28" x="171.5" y="70.5352">App</text><rect fill="#E2E2F0" height="30.4883" rx="2.5" ry="2.5" style="stroke:#181818;stroke-width:0.5;" width="42" x="164.5" y="553.1465"/><text fill="#000000" font-family="sans-serif" font-size="14" lengthAdjust="spacing" textLength="28" x="171.5" y="573.6816">App</text><rect fill="#E2E2F0" height="30.4883" rx="2.5" ry="2.5" style="stroke:#181818;stroke-width:0.5;" width="48" x="334.5" y="50"/><text fill="#000000" font-family="sans-serif" font-size="14" lengthAdjust="spacing" textLength="34" x="341.5" y="70.5352">Olevi</text><rect fill="#E2E2F0" height="30.4883" rx="2.5" ry="2.5" style="stroke:#181818;stroke-width:0.5;" width="48" x="334.5" y="553.1465"/><text fill="#000000" font-family="sans-serif" font-size="14" lengthAdjust="spacing" textLength="34" x="341.5" y="573.6816">Olevi</text><rect fill="#E2E2F0" height="30.4883" rx="2.5" ry="2.5" style="stroke:#181818;stroke-width:0.5;" width="91" x="567" y="50"/><text fill="#000000" font-family="sans-serif" font-size="14" lengthAdjust="spacing" textLength="77" x="574" y="70.5352">MgmForms</text><rect fill="#E2E2F0" height="30.4883" rx="2.5" ry="2.5" style="stroke:#181818;stroke-width:0.5;" width="91" x="567" y="553.1465"/><text fill="#000000" font-family="sans-serif" font-size="14" lengthAdjust="spacing" textLength="77" x="574" y="573.6816">MgmForms</text><rect fill="#E2E2F0" height="30.4883" rx="2.5" ry="2.5" style="stroke:#181818;stroke-width:0.5;" width="74" x="668" y="50"/><text fill="#000000" font-family="sans-serif" font-size="14" lengthAdjust="spacing" textLength="60" x="675" y="70.5352">Candour</text><rect fill="#E2E2F0" height="30.4883" rx="2.5" ry="2.5" style="stroke:#181818;stroke-width:0.5;" width="74" x="668" y="553.1465"/><text fill="#000000" font-family="sans-serif" font-size="14" lengthAdjust="spacing" textLength="60" x="675" y="573.6816">Candour</text><polygon fill="#181818" points="173.5,108.7988,183.5,112.7988,173.5,116.7988,177.5,112.7988" style="stroke:#181818;stroke-width:1.0;"/><line style="stroke:#181818;stroke-width:1.0;" x1="23.5" x2="179.5" y1="112.7988" y2="112.7988"/><text fill="#000000" font-family="sans-serif" font-size="13" lengthAdjust="spacing" textLength="29" x="30.5" y="108.0566">Start</text><polygon fill="#181818" points="346.5,138.1094,356.5,142.1094,346.5,146.1094,350.5,142.1094" style="stroke:#181818;stroke-width:1.0;"/><line style="stroke:#181818;stroke-width:1.0;" x1="185.5" x2="352.5" y1="142.1094" y2="142.1094"/><text fill="#000000" font-family="sans-serif" font-size="13" lengthAdjust="spacing" textLength="139" x="192.5" y="137.3672">Initiate authentication</text><polygon fill="#181818" points="34.5,167.4199,24.5,171.4199,34.5,175.4199,30.5,171.4199" style="stroke:#181818;stroke-width:1.0;"/><line style="stroke:#181818;stroke-width:1.0;" x1="28.5" x2="357.5" y1="171.4199" y2="171.4199"/><text fill="#000000" font-family="sans-serif" font-size="13" lengthAdjust="spacing" textLength="276" x="40.5" y="166.6777">Authenticate with a method providing email</text><polygon fill="#181818" points="346.5,196.7305,356.5,200.7305,346.5,204.7305,350.5,200.7305" style="stroke:#181818;stroke-width:1.0;"/><line style="stroke:#181818;stroke-width:1.0;" x1="23.5" x2="352.5" y1="200.7305" y2="200.7305"/><text fill="#000000" font-family="sans-serif" font-size="13" lengthAdjust="spacing" textLength="168" x="30.5" y="195.9883">I have email based identity</text><polygon fill="#181818" points="600.5,226.041,610.5,230.041,600.5,234.041,604.5,230.041" style="stroke:#181818;stroke-width:1.0;"/><line style="stroke:#181818;stroke-width:1.0;" x1="358.5" x2="606.5" y1="230.041" y2="230.041"/><text fill="#000000" font-family="sans-serif" font-size="13" lengthAdjust="spacing" textLength="230" x="365.5" y="225.2988">Check user is member in pilot group</text><polygon fill="#181818" points="34.5,255.3516,24.5,259.3516,34.5,263.3516,30.5,259.3516" style="stroke:#181818;stroke-width:1.0;"/><line style="stroke:#181818;stroke-width:1.0;" x1="28.5" x2="357.5" y1="259.3516" y2="259.3516"/><text fill="#000000" font-family="sans-serif" font-size="13" lengthAdjust="spacing" textLength="118" x="40.5" y="254.6094">If not, deny access</text><polygon fill="#181818" points="34.5,284.6621,24.5,288.6621,34.5,292.6621,30.5,288.6621" style="stroke:#181818;stroke-width:1.0;"/><line style="stroke:#181818;stroke-width:1.0;" x1="28.5" x2="357.5" y1="288.6621" y2="288.6621"/><text fill="#000000" font-family="sans-serif" font-size="13" lengthAdjust="spacing" textLength="201" x="40.5" y="283.9199">If yes, initiate Candour proofing</text><polygon fill="#181818" points="693,313.9727,703,317.9727,693,321.9727,697,317.9727" style="stroke:#181818;stroke-width:1.0;"/><line style="stroke:#181818;stroke-width:1.0;" x1="358.5" x2="699" y1="317.9727" y2="317.9727"/><text fill="#000000" font-family="sans-serif" font-size="13" lengthAdjust="spacing" textLength="152" x="365.5" y="313.2305">initiate Candour request</text><polygon fill="#181818" points="693,343.2832,703,347.2832,693,351.2832,697,347.2832" style="stroke:#181818;stroke-width:1.0;"/><line style="stroke:#181818;stroke-width:1.0;" x1="23.5" x2="699" y1="347.2832" y2="347.2832"/><text fill="#000000" font-family="sans-serif" font-size="13" lengthAdjust="spacing" textLength="128" x="30.5" y="342.541">Do identity proofing</text><polygon fill="#181818" points="34.5,372.5938,24.5,376.5938,34.5,380.5938,30.5,376.5938" style="stroke:#181818;stroke-width:1.0;"/><line style="stroke:#181818;stroke-width:1.0;" x1="28.5" x2="704" y1="376.5938" y2="376.5938"/><text fill="#000000" font-family="sans-serif" font-size="13" lengthAdjust="spacing" textLength="107" x="40.5" y="371.8516">Proofing success</text><polygon fill="#181818" points="346.5,401.9043,356.5,405.9043,346.5,409.9043,350.5,405.9043" style="stroke:#181818;stroke-width:1.0;"/><line style="stroke:#181818;stroke-width:1.0;" x1="23.5" x2="352.5" y1="405.9043" y2="405.9043"/><text fill="#000000" font-family="sans-serif" font-size="13" lengthAdjust="spacing" textLength="146" x="30.5" y="401.1621">I'm back, let's continue</text><polygon fill="#181818" points="693,431.2148,703,435.2148,693,439.2148,697,435.2148" style="stroke:#181818;stroke-width:1.0;"/><line style="stroke:#181818;stroke-width:1.0;" x1="358.5" x2="699" y1="435.2148" y2="435.2148"/><text fill="#000000" font-family="sans-serif" font-size="13" lengthAdjust="spacing" textLength="68" x="365.5" y="430.4727">Get results</text><line style="stroke:#181818;stroke-width:1.0;" x1="358.5" x2="400.5" y1="464.5254" y2="464.5254"/><line style="stroke:#181818;stroke-width:1.0;" x1="400.5" x2="400.5" y1="464.5254" y2="477.5254"/><line style="stroke:#181818;stroke-width:1.0;" x1="359.5" x2="400.5" y1="477.5254" y2="477.5254"/><polygon fill="#181818" points="369.5,473.5254,359.5,477.5254,369.5,481.5254,365.5,477.5254" style="stroke:#181818;stroke-width:1.0;"/><text fill="#000000" font-family="sans-serif" font-size="13" lengthAdjust="spacing" textLength="103" x="365.5" y="459.7832">Combine results</text><polygon fill="#181818" points="196.5,502.8359,186.5,506.8359,196.5,510.8359,192.5,506.8359" style="stroke:#181818;stroke-width:1.0;"/><line style="stroke:#181818;stroke-width:1.0;" x1="190.5" x2="357.5" y1="506.8359" y2="506.8359"/><text fill="#000000" font-family="sans-serif" font-size="13" lengthAdjust="spacing" textLength="149" x="202.5" y="502.0938">Return as authenticated</text><polygon fill="#181818" points="34.5,532.1465,24.5,536.1465,34.5,540.1465,30.5,536.1465" style="stroke:#181818;stroke-width:1.0;"/><line style="stroke:#181818;stroke-width:1.0;" x1="28.5" x2="184.5" y1="536.1465" y2="536.1465"/><text fill="#000000" font-family="sans-serif" font-size="13" lengthAdjust="spacing" textLength="138" x="40.5" y="531.4043">Continue serving user</text><!--SRC=[RP91RiCW44NtFiNVPUDUm8jAaQjMMLIjMlK014_iKGouCBZoxGk9OqT9DWZum_zl0AN5UVm4yaMHHpmzOpiC5Rv5UIdIDEzyz3HoXPrbOIK45QKZAwoLiBF5ISvrsQ72TbK9VomT50n9vneCtetSi6r1Hd6_H5u2qAcHpXhsAb03RhALJ6l8UsjUdJUXGjsHFY9c3mufmkppp6BWtWbQx-9moxOxm3efaLmdAAqfX0Sb4uKo6StTriesBleCxmw9VJqmAzLzhQVVI46M1fVA5xUqj1fUJYqCdxE24C-CjnUrCUb-zB54Jx89q2uvsaWFqDv84as8lLnrEjlKpkpPqhr- -W9V9D5Rg73ztjHSFiMPj9wJaLPZ9ixFKVm3]--></g></svg>