<?xml version="1.0" encoding="UTF-8" standalone="no"?><svg xmlns="http://www.w3.org/2000/svg" xmlns:xlink="http://www.w3.org/1999/xlink" contentStyleType="text/css" height="250px" preserveAspectRatio="none" style="width:546px;height:250px;background:#FFFFFF;" version="1.1" viewBox="0 0 546 250" width="546px" zoomAndPan="magnify"><defs/><g><g id="elem_GoogleIdP"><rect fill="#F1F1F1" height="44.9766" style="stroke:#181818;stroke-width:0.5;" width="180" x="99.5" y="7"/><text fill="#000000" font-family="sans-serif" font-size="14" lengthAdjust="spacing" textLength="166" x="106.5" y="22.5352">Google Identity Platform</text><line style="stroke:#181818;stroke-width:0.5;" x1="100.5" x2="278.5" y1="27.4883" y2="27.4883"/><text fill="#000000" font-family="sans-serif" font-size="14" lengthAdjust="spacing" textLength="79" x="105.5" y="45.0234">Company A</text></g><g id="elem_AAD"><rect fill="#F1F1F1" height="44.9766" style="stroke:#181818;stroke-width:0.5;" width="89" x="314" y="7"/><text fill="#000000" font-family="sans-serif" font-size="14" lengthAdjust="spacing" textLength="65" x="326" y="22.5352">Azure AD</text><line style="stroke:#181818;stroke-width:0.5;" x1="315" x2="402" y1="27.4883" y2="27.4883"/><text fill="#000000" font-family="sans-serif" font-size="14" lengthAdjust="spacing" textLength="77" x="320" y="45.0234">Company B</text></g><g id="elem_IdPBroker"><rect fill="#F1F1F1" height="36.4883" style="stroke:#181818;stroke-width:0.5;" width="73" x="237" y="111.97"/><text fill="#000000" font-family="sans-serif" font-size="14" lengthAdjust="spacing" textLength="59" x="244" y="127.5052">Olevi IdP</text><line style="stroke:#181818;stroke-width:0.5;" x1="238" x2="309" y1="132.4583" y2="132.4583"/></g><g id="elem_3rdPa"><rect fill="#F1F1F1" height="36.4883" style="stroke:#181818;stroke-width:0.5;" width="155" x="7" y="208.46"/><text fill="#000000" font-family="sans-serif" font-size="14" lengthAdjust="spacing" textLength="141" x="14" y="223.9952">Third Party Service A</text><line style="stroke:#181818;stroke-width:0.5;" x1="8" x2="161" y1="228.9483" y2="228.9483"/></g><g id="elem_3rdPb"><rect fill="#F1F1F1" height="36.4883" style="stroke:#181818;stroke-width:0.5;" width="153" x="197" y="208.46"/><text fill="#000000" font-family="sans-serif" font-size="14" lengthAdjust="spacing" textLength="139" x="204" y="223.9952">Third Party Service B</text><line style="stroke:#181818;stroke-width:0.5;" x1="198" x2="349" y1="228.9483" y2="228.9483"/></g><g id="elem_3rdPc"><rect fill="#F1F1F1" height="36.4883" style="stroke:#181818;stroke-width:0.5;" width="155" x="385" y="208.46"/><text fill="#000000" font-family="sans-serif" font-size="14" lengthAdjust="spacing" textLength="141" x="392" y="223.9952">Third Party Service C</text><line style="stroke:#181818;stroke-width:0.5;" x1="386" x2="539" y1="228.9483" y2="228.9483"/></g><!--MD5=[a7ed75d0a6187a5431cc8d3b79835641]
reverse link AAD to IdPBroker--><g id="link_AAD_IdPBroker"><path codeLine="11" d="M325.95,68.29 C313.11,83.21 298.99,99.61 288.63,111.64 " fill="none" id="AAD-backto-IdPBroker" style="stroke:#181818;stroke-width:1.0;"/><polygon fill="none" points="321.28,63.99,339.64,53.4,331.89,73.12,321.28,63.99" style="stroke:#181818;stroke-width:1.0;"/></g><!--MD5=[37be001266487f3851a5a9ff34324f43]
reverse link GoogleIdP to IdPBroker--><g id="link_GoogleIdP_IdPBroker"><path codeLine="12" d="M221.66,68.29 C234.35,83.21 248.31,99.61 258.55,111.64 " fill="none" id="GoogleIdP-backto-IdPBroker" style="stroke:#181818;stroke-width:1.0;"/><polygon fill="none" points="215.77,73.17,208.14,53.4,226.43,64.09,215.77,73.17" style="stroke:#181818;stroke-width:1.0;"/></g><!--MD5=[cd9e4f0718524c63e79e3cefcfce5eda]
reverse link IdPBroker to 3rdPa--><g id="link_IdPBroker_3rdPa"><path codeLine="13" d="M220.06,157.94 C187.92,174 147.93,193.99 119.74,208.09 " fill="none" id="IdPBroker-backto-3rdPa" style="stroke:#181818;stroke-width:1.0;"/><polygon fill="none" points="216.37,151.45,237.39,148.77,222.63,163.97,216.37,151.45" style="stroke:#181818;stroke-width:1.0;"/></g><!--MD5=[08d005bc9185be1fc2522d526a05a882]
reverse link IdPBroker to 3rdPb--><g id="link_IdPBroker_3rdPb"><path codeLine="14" d="M273.5,169.39 C273.5,182.82 273.5,197.27 273.5,208.17 " fill="none" id="IdPBroker-backto-3rdPb" style="stroke:#181818;stroke-width:1.0;"/><polygon fill="none" points="266.5,169.55,273.5,149.55,280.5,169.55,266.5,169.55" style="stroke:#181818;stroke-width:1.0;"/></g><!--MD5=[b9c864303347d30093f38c31d4279ee5]
reverse link IdPBroker to 3rdPc--><g id="link_IdPBroker_3rdPc"><path codeLine="15" d="M326.94,157.94 C359.08,174 399.07,193.99 427.26,208.09 " fill="none" id="IdPBroker-backto-3rdPc" style="stroke:#181818;stroke-width:1.0;"/><polygon fill="none" points="324.37,163.97,309.61,148.77,330.63,151.45,324.37,163.97" style="stroke:#181818;stroke-width:1.0;"/></g><!--MD5=[92fe0268993f7994e977587ffdb7b5f6]
@startuml useCase-idpMergerConsolidation

object "Google Identity Platform" as GoogleIdP
    GoogleIdP : Company A
object "Azure AD" as AAD
    AAD : Company B
object "Olevi IdP" as IdPBroker
object "Third Party Service A" as 3rdPa
object "Third Party Service B" as 3rdPb
object "Third Party Service C" as 3rdPc

IdPBroker -u-|> AAD
IdPBroker -u-|> GoogleIdP
IdPBroker <|-d- 3rdPa
IdPBroker <|-d- 3rdPb
IdPBroker <|-d- 3rdPc


@end

PlantUML version 1.2022.7(Mon Aug 22 20:01:30 EEST 2022)
(GPL source distribution)
Java Runtime: OpenJDK Runtime Environment
JVM: OpenJDK 64-Bit Server VM
Default Encoding: UTF-8
Language: en
Country: FI
--></g></svg>