<?xml version="1.0" encoding="UTF-8" standalone="no"?><svg xmlns="http://www.w3.org/2000/svg" xmlns:xlink="http://www.w3.org/1999/xlink" contentStyleType="text/css" height="250px" preserveAspectRatio="none" style="width:546px;height:250px;background:#FFFFFF;" version="1.1" viewBox="0 0 546 250" width="546px" zoomAndPan="magnify"><defs/><g><g id="elem_GoogleIdP"><rect fill="#F1F1F1" height="44.9766" style="stroke:#181818;stroke-width:0.5;" width="180" x="98.5" y="7"/><text fill="#000000" font-family="sans-serif" font-size="14" lengthAdjust="spacing" textLength="166" x="105.5" y="22.5352">Google Identity Platform</text><line style="stroke:#181818;stroke-width:0.5;" x1="99.5" x2="277.5" y1="27.4883" y2="27.4883"/><text fill="#000000" font-family="sans-serif" font-size="14" lengthAdjust="spacing" textLength="79" x="104.5" y="45.0234">Company A</text></g><g id="elem_AAD"><rect fill="#F1F1F1" height="44.9766" style="stroke:#181818;stroke-width:0.5;" width="89" x="314" y="7"/><text fill="#000000" font-family="sans-serif" font-size="14" lengthAdjust="spacing" textLength="65" x="326" y="22.5352">Azure AD</text><line style="stroke:#181818;stroke-width:0.5;" x1="315" x2="402" y1="27.4883" y2="27.4883"/><text fill="#000000" font-family="sans-serif" font-size="14" lengthAdjust="spacing" textLength="77" x="320" y="45.0234">Company B</text></g><g id="elem_IdPBroker"><rect fill="#F1F1F1" height="36.4883" style="stroke:#181818;stroke-width:0.5;" width="80" x="233.5" y="112"/><text fill="#000000" font-family="sans-serif" font-size="14" lengthAdjust="spacing" textLength="66" x="240.5" y="127.5352">IdPBroker</text><line style="stroke:#181818;stroke-width:0.5;" x1="234.5" x2="312.5" y1="132.4883" y2="132.4883"/></g><g id="elem_3rdPa"><rect fill="#F1F1F1" height="36.4883" style="stroke:#181818;stroke-width:0.5;" width="155" x="7" y="208"/><text fill="#000000" font-family="sans-serif" font-size="14" lengthAdjust="spacing" textLength="141" x="14" y="223.5352">Third Party Service A</text><line style="stroke:#181818;stroke-width:0.5;" x1="8" x2="161" y1="228.4883" y2="228.4883"/></g><g id="elem_3rdPb"><rect fill="#F1F1F1" height="36.4883" style="stroke:#181818;stroke-width:0.5;" width="153" x="197" y="208"/><text fill="#000000" font-family="sans-serif" font-size="14" lengthAdjust="spacing" textLength="139" x="204" y="223.5352">Third Party Service B</text><line style="stroke:#181818;stroke-width:0.5;" x1="198" x2="349" y1="228.4883" y2="228.4883"/></g><g id="elem_3rdPc"><rect fill="#F1F1F1" height="36.4883" style="stroke:#181818;stroke-width:0.5;" width="155" x="385" y="208"/><text fill="#000000" font-family="sans-serif" font-size="14" lengthAdjust="spacing" textLength="141" x="392" y="223.5352">Third Party Service C</text><line style="stroke:#181818;stroke-width:0.5;" x1="386" x2="539" y1="228.4883" y2="228.4883"/></g><!--MD5=[a7ed75d0a6187a5431cc8d3b79835641]
reverse link AAD to IdPBroker--><g id="link_AAD_IdPBroker"><path codeLine="11" d="M325.86,68.32 C312.93,83.31 298.71,99.78 288.36,111.78 " fill="none" id="AAD-backto-IdPBroker" style="stroke:#181818;stroke-width:1.0;"/><polygon fill="none" points="320.28,64.07,338.65,53.51,330.88,73.22,320.28,64.07" style="stroke:#181818;stroke-width:1.0;"/></g><!--MD5=[37be001266487f3851a5a9ff34324f43]
reverse link GoogleIdP to IdPBroker--><g id="link_GoogleIdP_IdPBroker"><path codeLine="12" d="M221.14,68.32 C234.07,83.31 248.29,99.78 258.64,111.78 " fill="none" id="GoogleIdP-backto-IdPBroker" style="stroke:#181818;stroke-width:1.0;"/><polygon fill="none" points="216.12,73.22,208.35,53.51,226.72,64.07,216.12,73.22" style="stroke:#181818;stroke-width:1.0;"/></g><!--MD5=[cd9e4f0718524c63e79e3cefcfce5eda]
reverse link IdPBroker to 3rdPa--><g id="link_IdPBroker_3rdPa"><path codeLine="13" d="M219.54,157.84 C187.38,173.83 147.48,193.68 119.42,207.63 " fill="none" id="IdPBroker-backto-3rdPa" style="stroke:#181818;stroke-width:1.0;"/><polygon fill="none" points="216.01,151.77,237.04,149.13,222.25,164.31,216.01,151.77" style="stroke:#181818;stroke-width:1.0;"/></g><!--MD5=[08d005bc9185be1fc2522d526a05a882]
reverse link IdPBroker to 3rdPb--><g id="link_IdPBroker_3rdPb"><path codeLine="14" d="M273.5,169.46 C273.5,182.68 273.5,196.84 273.5,207.55 " fill="none" id="IdPBroker-backto-3rdPb" style="stroke:#181818;stroke-width:1.0;"/><polygon fill="none" points="266.5,169.75,273.5,149.75,280.5,169.75,266.5,169.75" style="stroke:#181818;stroke-width:1.0;"/></g><!--MD5=[b9c864303347d30093f38c31d4279ee5]
reverse link IdPBroker to 3rdPc--><g id="link_IdPBroker_3rdPc"><path codeLine="15" d="M327.46,157.84 C359.62,173.83 399.52,193.68 427.58,207.63 " fill="none" id="IdPBroker-backto-3rdPc" style="stroke:#181818;stroke-width:1.0;"/><polygon fill="none" points="324.75,164.31,309.96,149.13,330.99,151.77,324.75,164.31" style="stroke:#181818;stroke-width:1.0;"/></g><!--MD5=[fa8765cbe4817d5f6470df5417009e30]
@startuml useCase-idpMergerConsolidation

object "Google Identity Platform" as GoogleIdP
    GoogleIdP : Company A
object "Azure AD" as AAD
    AAD : Company B
object IdPBroker
object "Third Party Service A" as 3rdPa
object "Third Party Service B" as 3rdPb
object "Third Party Service C" as 3rdPc

IdPBroker -u-|> AAD
IdPBroker -u-|> GoogleIdP
IdPBroker <|-d- 3rdPa
IdPBroker <|-d- 3rdPb
IdPBroker <|-d- 3rdPc


@end

PlantUML version 1.2022.7(Mon Aug 22 20:01:30 EEST 2022)
(GPL source distribution)
Java Runtime: OpenJDK Runtime Environment
JVM: OpenJDK 64-Bit Server VM
Default Encoding: UTF-8
Language: en
Country: FI
--></g></svg>