<?xml version="1.0" encoding="us-ascii" standalone="no"?><svg xmlns="http://www.w3.org/2000/svg" xmlns:xlink="http://www.w3.org/1999/xlink" contentStyleType="text/css" height="542px" preserveAspectRatio="none" style="width:661px;height:542px;background:#FFFFFF;" version="1.1" viewBox="0 0 661 542" width="661px" zoomAndPan="magnify"><defs/><g><!--class Employees--><g id="elem_Employees"><rect codeLine="3" fill="#F1F1F1" height="97.4648" id="Employees" rx="2.5" ry="2.5" style="stroke:#181818;stroke-width:0.5;" width="174" x="480" y="7"/><ellipse cx="526.25" cy="23" fill="#ADD1B2" rx="11" ry="11" style="stroke:#181818;stroke-width:1.0;"/><path d="M529.8643,29.5 L522.1445,29.5 L522.1445,17.1069 L529.8643,17.1069 L529.8643,19.2651 L524.5933,19.2651 L524.5933,21.938 L529.3662,21.938 L529.3662,24.0962 L524.5933,24.0962 L524.5933,27.3418 L529.8643,27.3418 Z " fill="#000000"/><text fill="#000000" font-family="sans-serif" font-size="14" lengthAdjust="spacing" textLength="73" x="546.75" y="28.291">Employees</text><line style="stroke:#181818;stroke-width:0.5;" x1="481" x2="653" y1="39" y2="39"/><text fill="#000000" font-family="sans-serif" font-size="14" lengthAdjust="spacing" textLength="162" x="486" y="56.5352">Employees authenticate</text><text fill="#000000" font-family="sans-serif" font-size="14" lengthAdjust="spacing" textLength="128" x="486" y="73.0234">directly using their</text><text fill="#000000" font-family="sans-serif" font-size="14" lengthAdjust="spacing" textLength="61" x="486" y="89.5117">Entra IDs</text><line style="stroke:#181818;stroke-width:0.5;" x1="481" x2="653" y1="96.4648" y2="96.4648"/></g><g id="elem_Olevi"><rect fill="#F1F1F1" height="77.9531" style="stroke:#181818;stroke-width:0.5;" width="167" x="309.5" y="196.47"/><text fill="#000000" font-family="sans-serif" font-size="14" lengthAdjust="spacing" textLength="34" x="376" y="212.0052">Olevi</text><line style="stroke:#181818;stroke-width:0.5;" x1="310.5" x2="475.5" y1="216.9583" y2="216.9583"/><text fill="#000000" font-family="sans-serif" font-size="14" lengthAdjust="spacing" textLength="155" x="315.5" y="234.4934">Olevi can handle guest</text><text fill="#000000" font-family="sans-serif" font-size="14" lengthAdjust="spacing" textLength="116" x="315.5" y="250.9817">authentication in</text><text fill="#000000" font-family="sans-serif" font-size="14" lengthAdjust="spacing" textLength="145" x="315.5" y="267.47">consolidated manner</text></g><g id="elem_CRM"><rect fill="#F1F1F1" height="77.9531" style="stroke:#181818;stroke-width:0.5;" width="188" x="7" y="196.47"/><text fill="#000000" font-family="sans-serif" font-size="14" lengthAdjust="spacing" textLength="31" x="85.5" y="212.0052">CRM</text><line style="stroke:#181818;stroke-width:0.5;" x1="8" x2="194" y1="216.9583" y2="216.9583"/><text fill="#000000" font-family="sans-serif" font-size="14" lengthAdjust="spacing" textLength="176" x="13" y="234.4934">Contains agreements and</text><text fill="#000000" font-family="sans-serif" font-size="14" lengthAdjust="spacing" textLength="142" x="13" y="250.9817">additional details for</text><text fill="#000000" font-family="sans-serif" font-size="14" lengthAdjust="spacing" textLength="92" x="13" y="267.47">partner users</text></g><!--entity EntraID--><g id="elem_EntraID"><rect fill="#F1F1F1" height="46.4883" rx="2.5" ry="2.5" style="stroke:#181818;stroke-width:0.5;" width="90" x="354" y="32.49"/><rect fill="#F1F1F1" height="10" style="stroke:#181818;stroke-width:0.5;" width="15" x="424" y="37.49"/><rect fill="#F1F1F1" height="2" style="stroke:#181818;stroke-width:0.5;" width="4" x="422" y="39.49"/><rect fill="#F1F1F1" height="2" style="stroke:#181818;stroke-width:0.5;" width="4" x="422" y="43.49"/><text fill="#000000" font-family="sans-serif" font-size="14" lengthAdjust="spacing" textLength="50" x="369" y="66.0252">EntraID</text></g><g id="elem_PartnerA"><rect fill="#F1F1F1" height="44.9766" style="stroke:#181818;stroke-width:0.5;" width="116" x="511" y="212.96"/><text fill="#000000" font-family="sans-serif" font-size="14" lengthAdjust="spacing" textLength="60" x="539" y="228.4952">PartnerA</text><line style="stroke:#181818;stroke-width:0.5;" x1="512" x2="626" y1="233.4483" y2="233.4483"/><text fill="#000000" font-family="sans-serif" font-size="14" lengthAdjust="spacing" textLength="104" x="517" y="250.9834">Google identity</text></g><g id="elem_PartnerB"><rect fill="#F1F1F1" height="44.9766" style="stroke:#181818;stroke-width:0.5;" width="72" x="503" y="351.91"/><text fill="#000000" font-family="sans-serif" font-size="14" lengthAdjust="spacing" textLength="58" x="510" y="367.4452">PartnerB</text><line style="stroke:#181818;stroke-width:0.5;" x1="504" x2="574" y1="372.3983" y2="372.3983"/><text fill="#000000" font-family="sans-serif" font-size="14" lengthAdjust="spacing" textLength="54" x="509" y="389.9334">Entra ID</text></g><g id="elem_PartnerC"><rect fill="#F1F1F1" height="61.4648" style="stroke:#181818;stroke-width:0.5;" width="75" x="307.5" y="474.38"/><text fill="#000000" font-family="sans-serif" font-size="14" lengthAdjust="spacing" textLength="60" x="315" y="489.9152">PartnerC</text><line style="stroke:#181818;stroke-width:0.5;" x1="308.5" x2="381.5" y1="494.8683" y2="494.8683"/><text fill="#000000" font-family="sans-serif" font-size="14" lengthAdjust="spacing" textLength="56" x="313.5" y="512.4034">Own IdP</text><text fill="#000000" font-family="sans-serif" font-size="14" lengthAdjust="spacing" textLength="63" x="313.5" y="528.8917">e.g. Olevi</text></g><g id="elem_Various"><rect fill="#F1F1F1" height="77.9531" style="stroke:#181818;stroke-width:0.5;" width="90" x="378" y="335.42"/><text fill="#000000" font-family="sans-serif" font-size="14" lengthAdjust="spacing" textLength="52" x="397" y="350.9552">Various</text><line style="stroke:#181818;stroke-width:0.5;" x1="379" x2="467" y1="355.9083" y2="355.9083"/><text fill="#000000" font-family="sans-serif" font-size="14" lengthAdjust="spacing" textLength="55" x="384" y="373.4434">Banking</text><text fill="#000000" font-family="sans-serif" font-size="14" lengthAdjust="spacing" textLength="78" x="384" y="389.9317">Credentials</text><text fill="#000000" font-family="sans-serif" font-size="14" lengthAdjust="spacing" textLength="37" x="384" y="406.42">(FTN)</text></g><!--reverse link EntraID to Employees--><g id="link_EntraID_Employees"><path codeLine="36" d="M450.28,55.74 C462.11,55.74 467.93,55.74 479.75,55.74 " fill="none" id="EntraID-backto-Employees" style="stroke:#181818;stroke-width:1.0;"/><polygon fill="#181818" points="444.28,55.74,453.28,59.74,449.28,55.74,453.28,51.74,444.28,55.74" style="stroke:#181818;stroke-width:1.0;"/></g><!--reverse link EntraID to Olevi--><g id="link_EntraID_Olevi"><path codeLine="37" d="M398.0382,85.2366 C397.0482,114.6566 395.49,160.63 394.29,196.26 " fill="none" id="EntraID-backto-Olevi" style="stroke:#181818;stroke-width:1.0;"/><polygon fill="#181818" points="398.24,79.24,393.9396,88.1004,398.0718,84.2372,401.9351,88.3694,398.24,79.24" style="stroke:#181818;stroke-width:1.0;"/><text fill="#000000" font-family="sans-serif" font-size="13" lengthAdjust="spacing" textLength="82" x="397.36" y="148.0384">[Provisioning</text><text fill="#000000" font-family="sans-serif" font-size="13" lengthAdjust="spacing" textLength="57" x="409.86" y="163.3489">possible]</text></g><!--reverse link CRM to Olevi--><g id="link_CRM_Olevi"><path codeLine="38" d="M201.4,235.45 C238.06,235.45 273.7,235.45 309.27,235.45 " fill="none" id="CRM-backto-Olevi" style="stroke:#181818;stroke-width:1.0;"/><polygon fill="#181818" points="195.4,235.45,204.4,239.45,200.4,235.45,204.4,231.45,195.4,235.45" style="stroke:#181818;stroke-width:1.0;"/><text fill="#000000" font-family="sans-serif" font-size="13" lengthAdjust="spacing" textLength="28" x="238.25" y="199.0184">auth</text><text fill="#000000" font-family="sans-serif" font-size="13" lengthAdjust="spacing" textLength="27" x="238.75" y="214.3289">data</text><text fill="#000000" font-family="sans-serif" font-size="13" lengthAdjust="spacing" textLength="78" x="213.25" y="229.6395">enrichement</text></g><!--reverse link Olevi to PartnerA--><g id="link_Olevi_PartnerA"><path codeLine="39" d="M482.87,235.45 C494.15,235.45 499.43,235.45 510.7,235.45 " fill="none" id="Olevi-backto-PartnerA" style="stroke:#181818;stroke-width:1.0;"/><polygon fill="#181818" points="476.87,235.45,485.87,239.45,481.87,235.45,485.87,231.45,476.87,235.45" style="stroke:#181818;stroke-width:1.0;"/></g><!--reverse link Olevi to PartnerB--><g id="link_Olevi_PartnerB"><path codeLine="40" d="M438.0451,278.6959 C464.5351,303.5559 493.78,330.98 515.81,351.65 " fill="none" id="Olevi-backto-PartnerB" style="stroke:#181818;stroke-width:1.0;"/><polygon fill="#181818" points="433.67,274.59,437.4954,283.6656,437.3159,278.0116,442.9699,277.8321,433.67,274.59" style="stroke:#181818;stroke-width:1.0;"/></g><!--reverse link Olevi to PartnerC--><g id="link_Olevi_PartnerC"><path codeLine="41" d="M375.8256,280.5346 C369.3056,298.6246 364.25,315.03 360,335.42 C350.05,383.2 346.7,439.95 345.57,473.94 " fill="none" id="Olevi-backto-PartnerC" style="stroke:#181818;stroke-width:1.0;"/><polygon fill="#181818" points="377.86,274.89,371.0453,282.0006,376.1647,279.5938,378.5714,284.7131,377.86,274.89" style="stroke:#181818;stroke-width:1.0;"/></g><!--reverse link Olevi to Various--><g id="link_Olevi_Various"><path codeLine="42" d="M402.6418,280.4515 C406.7618,299.2915 410.45,316.11 414.58,334.98 " fill="none" id="Olevi-backto-Various" style="stroke:#181818;stroke-width:1.0;"/><polygon fill="#181818" points="401.36,274.59,399.3751,284.2368,402.4282,279.4746,407.1904,282.5277,401.36,274.59" style="stroke:#181818;stroke-width:1.0;"/></g><!--link Employees to PartnerA--><!--link PartnerA to PartnerB--><!--link PartnerB to PartnerC--><!--SRC=[RL51JiCm4Bpx5Nk4G_e0n8MaW7e0AeIuj3suiKaMd7LaEoqLukzix2HjHNsoTyQpixFI6Bjly1kf4a9Jm720-wOrzg2rXny1V8vlsOMw9vKow0WfTBeCvW2TPmLW51saJnISXCNSYryXxFQJQV1Yz0u7qNGl9K4jIHaDLQTzYD195xG4IB5QMlBMeEBM2Xf9f1rB3yh5wzEWMrWA4eczLaxhXdNuIYe9AuMzf3IWDBECXm_h8jHA5rYHvz2kjrpQfhN4lzCWY_dOQPc8TqExHsihDeygPNTqDF3oCSCXZd-4OinZJx1GotZNisgM0ZhItwL3suqhoILzzIkB4piTkqlZu_lguUtvkazzS0wtcSjEbdXUJtkuWTNIsHrwJeTrrzHQxt5hz4RqqPun-_MiYVSWrnoGmxAECOk4H-eOqeLQVg5MJ3MLZOEo_SbnjgfHyOmRTI8zBU82ceif_Wje8Vu0]--></g></svg>